<?xml version="1.0" encoding="utf-8"?>
<!-- Generator: Adobe Illustrator 18.1.1, SVG Export Plug-In . SVG Version: 6.00 Build 0)  -->
<svg version="1.1" id="Capa_1" xmlns="http://www.w3.org/2000/svg" xmlns:xlink="http://www.w3.org/1999/xlink" x="0px" y="0px"
	 viewBox="0 0 512 512" enable-background="new 0 0 512 512" xml:space="preserve">
<g>
	<path d="M369.2,0H142.8c-17.7,0-32.3,14.4-32.3,31.9v448.2c0,17.5,14.6,31.9,32.3,31.9h226.4c17.7,0,32.3-14.4,32.3-31.9V31.9
		C401.5,14.4,386.9,0,369.2,0z M366.5,341.9h-221V48h221V341.9z"/>
	<rect x="145.5" y="371.9" fill="#FFFFFF" width="57" height="38"/>
	<rect x="227.5" y="371.9" fill="#FFFFFF" width="57" height="38"/>
	<rect x="309.6" y="371.9" fill="#FFFFFF" width="57" height="38"/>
	<rect x="145.5" y="435.2" fill="#FFFFFF" width="57" height="38"/>
	<rect x="227.5" y="435.2" fill="#FFFFFF" width="57" height="38"/>
	<rect x="309.6" y="435.2" fill="#FFFFFF" width="57" height="38"/>
</g>
</svg>
