<?xml version="1.0" encoding="utf-8"?>
<!-- Generator: Adobe Illustrator 18.1.1, SVG Export Plug-In . SVG Version: 6.00 Build 0)  -->
<svg version="1.1" id="Capa_1" xmlns="http://www.w3.org/2000/svg" xmlns:xlink="http://www.w3.org/1999/xlink" x="0px" y="0px"
	 viewBox="0 0 512 512" enable-background="new 0 0 512 512" xml:space="preserve">
<path d="M146.8,390.9l1.2-1.2c4.8-4.8,12.6-4.8,17.4,0l77.3,77.3V12.3c0-6.8,5.5-12.3,12.3-12.3l1.8,0c6.8,0,12.3,5.5,12.3,12.3
	v454.6l77.3-77.3c4.8-4.8,12.6-4.8,17.4,0l1.2,1.2c4.8,4.8,4.8,12.6,0,17.4l-98.6,98.6c-2.3,3-5.7,5.1-9.7,5.1h-1.8
	c-4,0-7.5-2.1-9.7-5.1l-98.6-98.6C142,403.5,142,395.7,146.8,390.9z"/>
</svg>
