<?xml version="1.0" encoding="utf-8"?>
<!-- Generator: Adobe Illustrator 18.1.1, SVG Export Plug-In . SVG Version: 6.00 Build 0)  -->
<svg version="1.1" id="Capa_1" xmlns="http://www.w3.org/2000/svg" xmlns:xlink="http://www.w3.org/1999/xlink" x="0px" y="0px"
	 viewBox="0 0 512 512" enable-background="new 0 0 512 512" xml:space="preserve">
<path fill-rule="evenodd" clip-rule="evenodd" d="M452.9,356.7C422.1,330,400,259.2,400,176c0-63-40.5-116.4-96.8-135.9
	C299.4,17.3,279.8,0,256,0c-23.7,0-43.4,17.3-47.2,40.1C152.5,59.6,112,113,112,176c0,83.2-22,154-52.9,180.7
	C42,371.5,32,393.2,32,416c0,26.5,21.5,48,48,48h128c0,26.6,21.5,48.1,48,48.1c26.6,0,48.1-21.5,48.1-48.1h128c26.5,0,48-21.5,48-48
	C480,393.2,470.1,371.5,452.9,356.7z M415,435H275.1c0,19.9,5.7,48.1-19.1,48.1c-21.6,0-18.6-28.1-18.6-48.1H97
	c-19.9,0-36-8.9-36-28.8c0-17.1,7.4-24.9,20.3-36c23.1-20,59.7-76.1,59.7-199.4c0-47.2,43.7-103.5,96.9-101.9c0,0-4.9-40,18-40
	c21.1,0,18,40,18,40c63.1,5.1,98.7,54.6,98.7,101.9c0,119.8,35.3,176.5,58.4,196.5c0,0,19.9,11,19.9,38.8
	C451,426.1,434.9,435,415,435z"/>
</svg>
