<?xml version="1.0" encoding="utf-8"?>
<!-- Generator: Adobe Illustrator 18.1.1, SVG Export Plug-In . SVG Version: 6.00 Build 0)  -->
<svg version="1.1" id="Capa_1" xmlns="http://www.w3.org/2000/svg" xmlns:xlink="http://www.w3.org/1999/xlink" x="0px" y="0px"
	 viewBox="0 0 512 512" enable-background="new 0 0 512 512" xml:space="preserve">
<g>
	<path fill="#010202" d="M491,42.4c-1.7-1.5-3.6-2.5-5.8-2.5H405V9.5c0-5.3-6-9.5-13.4-9.5c-7.4,0-13.4,4.3-13.4,9.5v30.3H133.9V9.5
		c0-5.3-6-9.5-13.4-9.5C113.1,0,107,4.3,107,9.5v30.3H26.8c-2.2,0-4.1,1.1-5.8,2.5c-2.8,1.8-4.7,4.5-4.7,7.5V502
		c0,3,1.9,5.6,4.7,7.5c1.7,1.5,3.6,2.5,5.8,2.5h458.4c2.2,0,4.1-1.1,5.8-2.5c2.8-1.8,4.7-4.5,4.7-7.5V49.9
		C495.8,46.9,493.9,44.2,491,42.4z M468.9,485.1H43.1V176.1h425.8V485.1z M468.9,149.2H43.1V66.7H107V97c0,5.3,6,9.5,13.4,9.5
		c7.4,0,13.4-4.3,13.4-9.5V66.7h244.2V97c0,5.3,6,9.5,13.4,9.5c7.4,0,13.4-4.3,13.4-9.5V66.7h63.9V149.2z"/>
	<path fill="#010202" d="M128,309.3h43c5.8,0,10.5-6,10.5-13.3l0,0v-41c0-3-2-5.5-4.9-7.3c-1.6-1.4-3.5-2.3-5.6-2.3h-43
		c-2.1,0-3.9,1-5.6,2.3c-2.9,1.8-4.9,4.3-4.9,7.3v41l0,0C117.5,303.3,122.2,309.3,128,309.3z"/>
	<path fill="#010202" d="M234.5,309.3h43c5.8,0,10.5-6,10.5-13.3l0,0v-41c0-3-2-5.5-4.9-7.3c-1.6-1.4-3.5-2.3-5.6-2.3h-43
		c-2.1,0-3.9,1-5.6,2.3c-2.9,1.8-4.9,4.3-4.9,7.3v41l0,0C224,303.3,228.8,309.3,234.5,309.3z"/>
	<path fill="#010202" d="M341.1,309.3h43c5.8,0,10.5-6,10.5-13.3l0,0v-41c0-3-2-5.5-4.9-7.3c-1.6-1.4-3.5-2.3-5.6-2.3h-43
		c-2.1,0-3.9,1-5.6,2.3c-2.9,1.8-4.9,4.3-4.9,7.3v41l0,0C330.6,303.3,335.3,309.3,341.1,309.3z"/>
	<path fill="#010202" d="M128,415.9h43c5.8,0,10.5-6,10.5-13.3l0,0v-41c0-3-2-5.5-4.9-7.3c-1.6-1.4-3.5-2.3-5.6-2.3h-43
		c-2.1,0-3.9,1-5.6,2.3c-2.9,1.8-4.9,4.3-4.9,7.3v41l0,0C117.5,409.8,122.2,415.9,128,415.9z"/>
	<path fill="#010202" d="M234.5,415.9h43c5.8,0,10.5-6,10.5-13.3l0,0v-41c0-3-2-5.5-4.9-7.3c-1.6-1.4-3.5-2.3-5.6-2.3h-43
		c-2.1,0-3.9,1-5.6,2.3c-2.9,1.8-4.9,4.3-4.9,7.3v41l0,0C224,409.8,228.8,415.9,234.5,415.9z"/>
	<path fill="#010202" d="M341.1,415.9h43c5.8,0,10.5-6,10.5-13.3l0,0v-41c0-3-2-5.5-4.9-7.3c-1.6-1.4-3.5-2.3-5.6-2.3h-43
		c-2.1,0-3.9,1-5.6,2.3c-2.9,1.8-4.9,4.3-4.9,7.3v41l0,0C330.6,409.8,335.3,415.9,341.1,415.9z"/>
</g>
</svg>
