<?xml version="1.0" encoding="utf-8"?>
<!-- Generator: Adobe Illustrator 18.1.1, SVG Export Plug-In . SVG Version: 6.00 Build 0)  -->
<svg version="1.1" id="Capa_1" xmlns="http://www.w3.org/2000/svg" xmlns:xlink="http://www.w3.org/1999/xlink" x="0px" y="0px"
	 viewBox="0 0 512 512" enable-background="new 0 0 512 512" xml:space="preserve">
<path d="M512,119.7c0-0.6-0.3-1.1-0.4-1.7c-0.1-1.1-0.3-2.1-0.6-3c-0.3-1-0.7-1.9-1.2-2.7c-0.5-0.9-1-1.7-1.7-2.5
	c-0.6-0.8-1.3-1.4-2.1-2.1c-0.8-0.6-1.6-1.2-2.5-1.7c-0.9-0.5-1.9-0.8-2.9-1.1c-0.6-0.2-1-0.5-1.6-0.7c-0.5-0.1-0.9,0.1-1.4,0
	c-0.5,0-0.9-0.3-1.4-0.3H112.3l-11.8-66.1c-1.4-7.6-8.1-12.7-15.6-12.7c-0.5-0.1-1-0.3-1.5-0.3H15.8C7.1,24.8,0,31.9,0,40.6
	s7.1,15.8,15.8,15.8h55.9l45.5,253.7l-15.1,84.1c-0.1,0.5,0.1,1,0,1.5c0,0.4-0.2,0.7-0.2,1c0,0.5,0.2,0.9,0.3,1.3
	c0.1,1.5,0.4,2.9,0.9,4.2c0.2,0.4,0.3,0.8,0.5,1.2c0.7,1.5,1.6,2.9,2.8,4.1c0.1,0.2,0.3,0.3,0.5,0.4c1.3,1.3,5.9,4.4,10.6,4.4
	c0.1,0,0.2,0.1,0.3,0.1H158c-14.4,5.6-24.6,19.6-24.6,35.9c0,21.4,17.3,38.7,38.7,38.7c21.4,0,38.7-17.3,38.7-38.7
	c0-16.4-10.2-30.3-24.6-35.9H383c-14.4,5.6-24.6,19.6-24.6,35.9c0,21.4,17.3,38.7,38.7,38.7c21.4,0,38.7-17.3,38.7-38.7
	c0-16.4-10.2-30.3-24.6-35.9h33.9c8.7,0,15.8-7.1,15.8-15.8c0-8.7-7.1-15.8-15.8-15.8H136.6l8.9-49.7h315.4c0.6,0,1.1-0.3,1.7-0.3
	c1.2-0.1,2.4-0.3,3.5-0.7c0.6-0.2,1.2-0.5,1.8-0.8c1.3-0.7,2.5-1.5,3.7-2.5c0.3-0.3,0.5-0.5,0.8-0.8c1.2-1.2,2.1-2.6,2.8-4.2
	c0.1-0.2,0.2-0.5,0.3-0.7c0.4-1,1-1.8,1.2-2.9l35.1-195.8c0.1-0.5-0.1-0.9,0-1.4C511.8,120.6,512,120.2,512,119.7z M477.4,135.5
	l-29.5,164.3H147.4l-29.5-164.3H477.4z"/>
</svg>
