<?xml version="1.0" encoding="utf-8"?>
<!-- Generator: Adobe Illustrator 18.1.1, SVG Export Plug-In . SVG Version: 6.00 Build 0)  -->
<svg version="1.1" id="Capa_1" xmlns="http://www.w3.org/2000/svg" xmlns:xlink="http://www.w3.org/1999/xlink" x="0px" y="0px"
	 viewBox="0 0 512 512" enable-background="new 0 0 512 512" xml:space="preserve">
<path fill="#000100" d="M508,85c-5.3-5.3-14-5.3-19.3,0l-313,313L23.3,245.4c-5.3-5.3-14-5.3-19.4,0c-5.3,5.3-5.3,14,0,19.3L166,427
	l0,0l0,0c0.4,0.4,0.9,0.6,1.4,0.9c1,0.8,2,1.6,3.1,2.1c0,0,0.1,0,0.1,0c4.9,2,10.8,1,14.7-3L508,104.3C513.3,99,513.3,90.3,508,85z"
	/>
</svg>
