<?xml version="1.0" encoding="utf-8"?>
<!-- Generator: Adobe Illustrator 18.1.1, SVG Export Plug-In . SVG Version: 6.00 Build 0)  -->
<svg version="1.1" id="Capa_1" xmlns="http://www.w3.org/2000/svg" xmlns:xlink="http://www.w3.org/1999/xlink" x="0px" y="0px"
	 viewBox="0 0 512 512" enable-background="new 0 0 512 512" xml:space="preserve">
<path fill="#010202" d="M512,170.2c0-41.9-12.1-74.6-36.3-98.3S418,36.5,375.4,36.5c-11.8,0-23.8,2-36.1,6.1
	c-12.3,4.1-23.7,9.6-34.3,16.6c-10.6,6.9-19.6,13.4-27.3,19.5S262.8,91.4,256,98.2c-6.8-6.8-14-13.3-21.7-19.4
	c-7.6-6.1-16.7-12.6-27.3-19.5c-10.6-6.9-22-12.4-34.3-16.5c-12.3-4.1-24.3-6.1-36.1-6.1C94,36.6,60.5,48.4,36.3,72S0,128.3,0,170.2
	c0,12.7,2.2,26,6.7,39.4c4.5,13.5,9.6,25,15.3,34.6c5.7,9.6,12.2,18.8,19.4,27.9c7.2,9.1,12.5,15.3,15.9,18.7
	c3.4,3.5,5.9,5.9,7.8,7.4l178.3,172c3.5,3.5,7.6,5.2,12.5,5.2l0,0c5,0,9.2-1.7,12.5-5.2l178-171.4C490.2,255.2,512,212.4,512,170.2z
	"/>
</svg>
