<?xml version="1.0" encoding="utf-8"?>
<!-- Generator: Adobe Illustrator 18.1.1, SVG Export Plug-In . SVG Version: 6.00 Build 0)  -->
<svg version="1.1" id="Capa_1" xmlns="http://www.w3.org/2000/svg" xmlns:xlink="http://www.w3.org/1999/xlink" x="0px" y="0px"
	 viewBox="0 0 512 512" enable-background="new 0 0 512 512" xml:space="preserve">
<g>
	<path d="M279.5,39.7c0,0-100.5,0-134,0C85.5,39.7,29,85.2,29,137.9c0,53.9,40.9,97.3,102,97.3c4.3,0,8.4-0.1,12.4-0.4
		c-4,7.6-6.8,16.1-6.8,25c0,15,8,27.1,18.2,37c-7.7,0-15.1,0.2-23.2,0.2C57.3,297.1,0,344.5,0,393.6c0,48.4,62.8,78.7,137.2,78.7
		c84.8,0,131.6-48.1,131.6-96.5c0-38.8-11.4-62-46.8-87.1c-12.1-8.6-35.3-29.4-35.3-41.7c0-14.4,4.1-21.4,25.7-38.3
		c22.2-17.3,37.8-41.6,37.8-70c0-33.7-15-66.5-43.2-77.4h42.5L279.5,39.7L279.5,39.7L279.5,39.7z M232.7,367.4
		c1.1,4.5,1.6,9.1,1.6,13.8c0,39.1-25.2,69.7-97.5,69.7c-51.4,0-88.6-32.6-88.6-71.7c0-38.3,46.1-70.2,97.5-69.7
		c12,0.1,23.2,2.1,33.3,5.3C207.1,334.3,227.1,345.3,232.7,367.4L232.7,367.4z M150.4,221.6c-34.5-1-67.3-38.6-73.3-83.9
		c-5.9-45.3,17.2-80,51.7-79c34.5,1,67.3,37.4,73.3,82.7C208.1,186.7,184.9,222.6,150.4,221.6z M416,135.7v-96h-32v96h-96v32h96v96
		h32v-96h96v-32H416z"/>
</g>
</svg>
