<?xml version="1.0" encoding="utf-8"?>
<!-- Generator: Adobe Illustrator 18.1.1, SVG Export Plug-In . SVG Version: 6.00 Build 0)  -->
<svg version="1.1" id="Capa_1" xmlns="http://www.w3.org/2000/svg" xmlns:xlink="http://www.w3.org/1999/xlink" x="0px" y="0px"
	 viewBox="0 0 512 512" enable-background="new 0 0 512 512" xml:space="preserve">
<g>
	<path d="M425.5,252.6c-8.3,0-14.8,6.4-14.8,14.8v201.7H306.2v-82.4c0-7.7-6.5-14.5-14.2-14.5h-75.7c-8.4,0-15.1,6.7-15.1,14.5v82.4
		H96.8v-195c0-7.8-6.4-14.2-14.8-14.2c-7.7,0-14.2,6.5-14.2,14.2v209.8c0,7.7,6.4,14.2,14.2,14.2h134.2c7.7,0,14.2-6.5,14.2-14.2
		v-82.4h46.7v82.4c0,7.7,6.4,14.2,14.8,14.2h133.6c7.8,0,14.2-6.5,14.2-14.2V267.4C439.8,259,433.3,252.6,425.5,252.6L425.5,252.6z"
		/>
	<path d="M507.8,261.3l-116.5-117V64.6c0-8.3-6.7-14.8-15.1-14.8c-7.8,0-14.2,6.4-14.2,14.8v50.5l-96-96.6c-2.9-3-6.4-4.5-9.9-4.5
		c-4,0-7.5,1.7-10.4,4.5L4.5,259.6c-5.8,5.8-6.2,15.1,0,20.3c5.4,6.2,14.7,5.8,20.4,0L256.2,49.2l230.7,232.9
		c2.4,2.4,5.9,3.8,10.4,3.8c4,0,7.5-1.3,10.5-3.8C513.2,276.9,513.6,267,507.8,261.3L507.8,261.3z"/>
</g>
</svg>
