<?xml version="1.0" encoding="utf-8"?>
<!-- Generator: Adobe Illustrator 18.1.1, SVG Export Plug-In . SVG Version: 6.00 Build 0)  -->
<svg version="1.1" id="Capa_1" xmlns="http://www.w3.org/2000/svg" xmlns:xlink="http://www.w3.org/1999/xlink" x="0px" y="0px"
	 viewBox="0 0 512 512" enable-background="new 0 0 512 512" xml:space="preserve">
<g>
	<path d="M256,0C114.8,0,0,114.8,0,256s114.8,256,256,256c141.2,0,256-114.8,256-256S397.1,0,256,0z M256,485.3
		C129.5,485.3,26.7,382.5,26.7,256S129.5,26.7,256,26.7c126.5,0,229.3,102.9,229.3,229.3S382.5,485.3,256,485.3z"/>
	<path d="M251.7,172.9c11.1,0,20.1-9,20.1-20.1c0-11.1-9-20.1-20.1-20.1c-11.1,0-20.1,9-20.1,20.1
		C231.7,163.9,240.7,172.9,251.7,172.9z"/>
	<path d="M305,352.3H271V205.7c0-8.3-6.7-15-15-15h-49c-8.3,0-15,6.7-15,15c0,8.3,6.7,11.8,15,11.8H241v134.7H207
		c-8.3,0-15,3.5-15,11.8s6.7,15,15,15H305c8.3,0,15-6.7,15-15S313.3,352.3,305,352.3z"/>
</g>
</svg>
