<?xml version="1.0" encoding="utf-8"?>
<!-- Generator: Adobe Illustrator 18.1.1, SVG Export Plug-In . SVG Version: 6.00 Build 0)  -->
<svg version="1.1" id="Capa_1" xmlns="http://www.w3.org/2000/svg" xmlns:xlink="http://www.w3.org/1999/xlink" x="0px" y="0px"
	 viewBox="0 0 512 512" enable-background="new 0 0 512 512" xml:space="preserve">
<g>
	<path d="M427.1,0H84.7c-12.1,0-22,9.7-22,21.8v468.4c0,12.1,9.9,21.8,22,21.8h342.5c12.2,0,22.2-9.7,22.2-21.8V21.8
		C449.3,9.7,439.4,0,427.1,0z M256,19.5c4.3,0,7.8,3.4,7.8,7.6c0,4.3-3.5,7.8-7.8,7.8c-4.4,0-7.8-3.6-7.8-7.8
		C248.2,22.9,251.6,19.5,256,19.5z M256.1,491.8c-10.3,0-18.6-8.2-18.6-18.3c0-10.1,8.3-18.2,18.6-18.2c10.3,0,18.5,8.2,18.5,18.2
		C274.5,483.6,266.4,491.8,256.1,491.8z M416.1,424.7H95.9V65.5h320.3L416.1,424.7L416.1,424.7z"/>
</g>
</svg>
