<?xml version="1.0" encoding="utf-8"?>
<!-- Generator: Adobe Illustrator 18.1.1, SVG Export Plug-In . SVG Version: 6.00 Build 0)  -->
<svg version="1.1" id="Capa_1" xmlns="http://www.w3.org/2000/svg" xmlns:xlink="http://www.w3.org/1999/xlink" x="0px" y="0px"
	 viewBox="0 0 512 512" enable-background="new 0 0 512 512" xml:space="preserve">
<g>
	<path d="M0,135.8v-25.6c0-0.3,0.3-0.6,0.6-0.6h510.7c0.3,0,0.6,0.3,0.6,0.6v25.6c0,0.3-0.3,0.6-0.6,0.6H0.6
		C0.3,136.4,0,136.1,0,135.8z"/>
	<path d="M0,268.3v-25.6c0-0.3,0.3-0.6,0.6-0.6h510.7c0.3,0,0.6,0.3,0.6,0.6v25.6c0,0.3-0.3,0.6-0.6,0.6H0.6
		C0.3,268.9,0,268.6,0,268.3z"/>
	<path d="M0,401.8v-25.6c0-0.3,0.3-0.6,0.6-0.6h510.7c0.3,0,0.6,0.3,0.6,0.6v25.6c0,0.3-0.3,0.6-0.6,0.6H0.6
		C0.3,402.5,0,402.2,0,401.8z"/>
</g>
</svg>
