<?xml version="1.0" encoding="utf-8"?>
<!-- Generator: Adobe Illustrator 18.1.1, SVG Export Plug-In . SVG Version: 6.00 Build 0)  -->
<svg version="1.1" id="Capa_1" xmlns="http://www.w3.org/2000/svg" xmlns:xlink="http://www.w3.org/1999/xlink" x="0px" y="0px"
	 viewBox="0 0 512 512" enable-background="new 0 0 512 512" xml:space="preserve">
<g>
	<path d="M309,157.3H203c-14.2,0-25.7-11.5-25.7-25.7V25.7C177.3,11.5,188.9,0,203,0H309c14.2,0,25.7,11.5,25.7,25.7v105.9
		C334.7,145.8,323.1,157.3,309,157.3z M203,25.5l-0.2,106.1l106.1,0.2c0.1,0,0.2-0.1,0.2-0.2V25.7L203,25.5z"/>
	<path d="M309,335.1H203.1c-14.2,0-25.7-11.5-25.7-25.7V203.5c0-14.2,11.5-25.7,25.7-25.7H309c14.2,0,25.7,11.5,25.7,25.7v105.9
		C334.7,323.6,323.1,335.1,309,335.1z M203.1,203.3l-0.2,106.1l106.1,0.2c0.1,0,0.2-0.1,0.2-0.2V203.5L203.1,203.3z"/>
	<path d="M309,512H203.1c-14.2,0-25.7-11.5-25.7-25.7V380.4c0-14.2,11.5-25.7,25.7-25.7H309c14.2,0,25.7,11.5,25.7,25.7v105.9
		C334.7,500.5,323.1,512,309,512z M203.1,380.2l-0.2,106.1l106.1,0.2c0.1,0,0.2-0.1,0.2-0.2V380.4L203.1,380.2z"/>
</g>
</svg>
