<?xml version="1.0" encoding="utf-8"?>
<!-- Generator: Adobe Illustrator 18.1.1, SVG Export Plug-In . SVG Version: 6.00 Build 0)  -->
<svg version="1.1" id="Capa_1" xmlns="http://www.w3.org/2000/svg" xmlns:xlink="http://www.w3.org/1999/xlink" x="0px" y="0px"
	 viewBox="0 0 512 512" enable-background="new 0 0 512 512" xml:space="preserve">
<g>
	<path d="M503.6,35.5c-4.3-4.8-8.6-9.2-13.3-13.9c-4.6-4.6-9.1-8.9-13.9-13.3c-5.5-4.9-12.2-7.9-19-8.3c-6.8-0.5-13.6,1.4-19.3,5.9
		c-5.4,4.3-10.3,8.8-15.1,13.6s-9.2,9.4-13.7,13.7c11.9,11.7,23.3,23.1,34.8,34.7c11.6,11.6,23,22.8,34.5,34.4
		c4.2-4,8.6-8.3,12.9-13.1c4.5-4.5,8.8-8.8,12.9-13.7c5.1-5.9,7.4-12.9,7.1-20S508.8,41.2,503.6,35.5z"/>
	<path d="M423.1,118.5L60.6,481l-30.8-30.8L391.4,88.7c5.3-5.3,5.3-13.9,0-19.2c-5.3-5.3-13.9-5.3-19.2,0l-368,368
		c-3,3-4.1,7.1-3.7,11c0,0.5-0.3,0.9-0.3,1.3v48.6c0,3.7,1.5,7.1,4,9.6c2.5,2.5,5.8,4,9.6,4h48.6c4.4,0,8.1-2.3,10.6-5.5
		c0.4-0.3,0.8-0.4,1.2-0.8l368-368c5.3-5.3,5.3-13.9,0-19.2S428.3,113.2,423.1,118.5z"/>
</g>
</svg>
