<?xml version="1.0" encoding="utf-8"?>
<!-- Generator: Adobe Illustrator 18.1.1, SVG Export Plug-In . SVG Version: 6.00 Build 0)  -->
<svg version="1.1" id="Capa_1" xmlns="http://www.w3.org/2000/svg" xmlns:xlink="http://www.w3.org/1999/xlink" x="0px" y="0px"
	 viewBox="0 0 512 512" enable-background="new 0 0 512 512" xml:space="preserve">
<g>
	<g>
		<g>
			<path d="M500.5,404.6l-79-79c-15.8-15.7-41.8-15.2-58.1,1.2l-39.9,39.8c-2.5-1.4-5.1-2.8-7.9-4.4c-25.1-13.9-59.6-33.1-95.8-69.3
				c-36.3-36.3-55.5-70.9-69.4-96c-1.5-2.6-2.9-5.2-4.3-7.6l26.7-26.7l13.2-13.2c16.3-16.3,16.7-42.4,1-58.1l-79-79
				c-15.7-15.7-41.8-15.3-58.1,1L27.6,35.5l0.5,0.6c-7.4,9.5-13.7,20.5-18.3,32.3c-4.3,11.3-7,22.1-8.2,32.9
				C-8.8,188,30.7,267,138,374.4C286.4,522.7,406,511.5,411.2,511c11.2-1.4,22-4,33-8.3c11.7-4.6,22.7-10.8,32.2-18.3l0.5,0.4
				l22.6-22.1C515.7,446.4,516.3,420.4,500.5,404.6L500.5,404.6z M481.9,445.2l-9.9,9.9l-4,3.8c-6.2,6.1-17.1,14.4-32.8,20.6
				c-9,3.5-17.8,5.7-26.8,6.8c-1.2,0.1-113.6,9.6-252.7-129.5C37.4,238.5,18.4,170.3,26.3,104.2c1-8.8,3.2-17.6,6.7-26.8
				c6.2-15.9,14.7-26.7,20.6-32.9l13.8-13.8c6.6-6.6,17-7.1,23-1.2l79,79c6.1,6.1,5.7,16.4-1,23l-53.4,53.3l4.9,8.3
				c2.7,4.6,5.7,9.8,8.7,15.4c14.7,26.5,34.8,62.7,73.6,101.5c38.6,38.7,74.9,58.8,101.3,73.5c5.7,3.1,10.9,6.1,15.6,8.9l8.4,4.9
				l53.4-53.3c6.7-6.6,17-7.1,23.1-1.2l79,79C489,428.2,488.5,438.6,481.9,445.2L481.9,445.2z"/>
		</g>
	</g>
</g>
</svg>
