<?xml version="1.0" encoding="utf-8"?>
<!-- Generator: Adobe Illustrator 18.1.1, SVG Export Plug-In . SVG Version: 6.00 Build 0)  -->
<svg version="1.1" id="Capa_1" xmlns="http://www.w3.org/2000/svg" xmlns:xlink="http://www.w3.org/1999/xlink" x="0px" y="0px"
	 viewBox="0 0 512 512" enable-background="new 0 0 512 512" xml:space="preserve">
<path d="M498.6,242.6H269.4V13.4C269.4,6,263.4,0,256,0c-7.4,0-13.4,6-13.4,13.4v229.1H13.4C6,242.6,0,248.6,0,256
	c0,7.4,6,13.4,13.4,13.4h229.1v229.1c0,7.4,6,13.4,13.4,13.4c7.4,0,13.4-6,13.4-13.4V269.4h229.1c7.4,0,13.4-6,13.4-13.4
	C512,248.6,506,242.6,498.6,242.6z"/>
</svg>
