<?xml version="1.0" encoding="utf-8"?>
<!-- Generator: Adobe Illustrator 18.1.1, SVG Export Plug-In . SVG Version: 6.00 Build 0)  -->
<svg version="1.1" id="Capa_1" xmlns="http://www.w3.org/2000/svg" xmlns:xlink="http://www.w3.org/1999/xlink" x="0px" y="0px"
	 viewBox="0 0 512 512" enable-background="new 0 0 512 512" xml:space="preserve">
<g>
	<path d="M502.4,309.9l-0.1-0.1L218.9,13l-0.2-0.2C210.7,4.7,199.9,0.2,188.3,0L33.4,0C15,0,0,15,0,33.4v150.1
		c0,11.5,4.4,22.4,12.4,30.7l0.2,0.2l297.4,287.9l0.2,0.2c6.2,6.2,14.6,9.6,23.7,9.6c9,0,17.3-3.4,23.5-9.6l145.1-145.3
		c6.2-6.2,9.6-14.6,9.6-23.5C512,324.5,508.6,316.1,502.4,309.9z M486.2,340.9L341.1,486.2c-1.8,1.8-4.5,2.9-7.3,2.9
		c-2.9,0-5.6-1-7.4-2.9l-0.1-0.1L28.8,198.2c-3.8-4.1-5.9-9.2-5.9-14.7V33.4c0-5.8,4.7-10.5,10.5-10.5H188c5.5,0.1,10.6,2.2,14.4,6
		l283.3,296.7l0.5,0.5c1.9,1.9,2.9,4.5,2.9,7.5C489.1,336.4,488.1,339,486.2,340.9z"/>
	<path d="M102.3,100.2c-26.1,26.1-26.1,68.6,0,94.8s68.6,26.1,94.8,0s26.1-68.6,0-94.8C170.9,74.1,128.4,74.1,102.3,100.2z
		 M180.1,178c-16.8,16.8-44,16.8-60.8,0c-16.8-16.8-16.8-44,0-60.8c16.8-16.8,44-16.8,60.8,0C196.8,134,196.8,161.3,180.1,178z"/>
</g>
</svg>
