<?xml version="1.0" encoding="utf-8"?>
<!-- Generator: Adobe Illustrator 18.1.1, SVG Export Plug-In . SVG Version: 6.00 Build 0)  -->
<svg version="1.1" id="Capa_1" xmlns="http://www.w3.org/2000/svg" xmlns:xlink="http://www.w3.org/1999/xlink" x="0px" y="0px"
	 viewBox="0 0 512 512" enable-background="new 0 0 512 512" xml:space="preserve">
<path d="M483,259.8c-6.9,0-12.6,5.6-12.6,12.6c0,118.2-96.2,214.5-214.5,214.5S41.5,390.6,41.5,272.4S137.8,57.9,256,57.9
	c50.3,0,95.9,15.9,133.1,46.1l-67.9,18.2c-6.7,1.8-10.7,8.7-8.9,15.4c1.5,5.6,6.6,9.3,12.1,9.3c1.1,0,2.2-0.1,3.3-0.5l96.6-25.9
	c0.6-0.2,1.1-0.6,1.6-0.8c0.8-0.4,1.6-0.7,2.4-1.2c0.7-0.5,1.2-1.1,1.7-1.6c0.6-0.6,1.1-1.1,1.6-1.8c0.4-0.7,0.7-1.4,1-2.1
	c0.3-0.8,0.6-1.5,0.8-2.3c0.1-0.8,0.1-1.5,0.1-2.3c0-0.7,0.2-1.4,0.1-2.1L417,10.5c-1.2-6.9-7.8-11.5-14.5-10.3
	c-6.8,1.2-11.4,7.7-10.3,14.5l11.8,69c-41.6-33.4-92.2-51-148.1-51c-132.1,0-239.6,107.5-239.6,239.6S123.9,512,256,512
	s239.6-107.5,239.6-239.6C495.6,265.5,490,259.8,483,259.8z"/>
</svg>
