<?xml version="1.0" encoding="utf-8"?>
<!-- Generator: Adobe Illustrator 18.1.1, SVG Export Plug-In . SVG Version: 6.00 Build 0)  -->
<svg version="1.1" id="Capa_1" xmlns="http://www.w3.org/2000/svg" xmlns:xlink="http://www.w3.org/1999/xlink" x="0px" y="0px"
	 viewBox="0 0 512 512" enable-background="new 0 0 512 512" xml:space="preserve">
<g>
	<path d="M441.2,75.4H340.8V13.4c0-3.7-1.5-7.1-3.9-9.5c-1.2-1.2-2.7-2.2-4.3-2.9C331,0.4,329.2,0,327.4,0l0,0H175.8l0,0
		c-1.8,0-3.6,0.4-5.2,1.1s-3.1,1.7-4.3,2.9c-2.4,2.4-3.9,5.8-3.9,9.5v61.9H70.8c-7.4,0-13.4,6-13.4,13.4c0,7.4,6,13.4,13.4,13.4
		h23.7v396.3c0,7.4,6,13.4,13.4,13.4h290.1c0.9,0,1.7-0.4,2.6-0.5c0.9,0.2,1.7,0.5,2.6,0.5c7.4,0,13.4-6,13.4-13.4V102.3h24.4
		c7.4,0,13.4-6,13.4-13.4C454.6,81.4,448.6,75.4,441.2,75.4z M189.3,26.9h124.7v48.5H189.3V26.9z M389.9,485.1H121.4V102.3h268.4
		V485.1z"/>
	<path d="M206.6,419.9c7.4,0,13.4-4.8,13.4-10.6V176.9c0-5.8-6-10.6-13.4-10.6c-7.4,0-13.4,4.8-13.4,10.6v232.4
		C193.2,415.1,199.2,419.9,206.6,419.9z"/>
	<path d="M305.4,419.9c7.4,0,13.4-4.8,13.4-10.6V176.9c0-5.8-6-10.6-13.4-10.6c-7.4,0-13.4,4.8-13.4,10.6v232.4
		C291.9,415.1,298,419.9,305.4,419.9z"/>
</g>
</svg>
