<?xml version="1.0" encoding="utf-8"?>
<!-- Generator: Adobe Illustrator 18.1.1, SVG Export Plug-In . SVG Version: 6.00 Build 0)  -->
<svg version="1.1" id="Capa_1" xmlns="http://www.w3.org/2000/svg" xmlns:xlink="http://www.w3.org/1999/xlink" x="0px" y="0px"
	 viewBox="0 0 512 512" enable-background="new 0 0 512 512" xml:space="preserve">
<path d="M506.9,266.6c3-2.3,5.1-5.7,5.1-9.7v-1.8c0-4-2.1-7.5-5.1-9.7l-98.6-98.6c-4.8-4.8-12.6-4.8-17.4,0l-1.2,1.2
	c-4.8,4.8-4.8,12.6,0,17.4l77.3,77.3H110.3c-6.8,0-12.3,5.5-12.3,12.3v1.8c0,6.8,5.5,12.3,12.3,12.3h356.6l-77.3,77.3
	c-4.8,4.8-4.8,12.6,0,17.4l1.2,1.2c4.8,4.8,12.6,4.8,17.4,0L506.9,266.6z"/>
<path d="M223.9,498.4c0-7.4-6-13.4-13.4-13.4H26.8V26.8h183.7c7.4,0,13.4-6,13.4-13.4S217.9,0,210.5,0L13.4,0C6,0,0,6,0,13.4l0,485
	c-0.1,7.4,5.9,13.4,13.3,13.4h197.2C217.9,511.8,223.9,505.8,223.9,498.4z"/>
</svg>
