<?xml version="1.0" encoding="utf-8"?>
<!-- Generator: Adobe Illustrator 18.1.1, SVG Export Plug-In . SVG Version: 6.00 Build 0)  -->
<svg version="1.1" id="Capa_1" xmlns="http://www.w3.org/2000/svg" xmlns:xlink="http://www.w3.org/1999/xlink" x="0px" y="0px"
	 viewBox="0 0 512 512" enable-background="new 0 0 512 512" xml:space="preserve">
<g>
	<path d="M408.9,266.6c3-2.3,5.1-5.7,5.1-9.7v-1.8c0-4-2.1-7.5-5.1-9.7l-98.6-98.6c-4.8-4.8-12.6-4.8-17.4,0l-1.2,1.2
		c-4.8,4.8-4.8,12.6,0,17.4l77.3,77.3H12.3c-6.8,0-12.3,5.5-12.3,12.3l0,1.8c0,6.8,5.5,12.3,12.3,12.3h356.6l-77.3,77.3
		c-4.8,4.8-4.8,12.6,0,17.4l1.2,1.2c4.8,4.8,12.6,4.8,17.4,0L408.9,266.6z"/>
	<path d="M288,13.4c0,7.4,6,13.4,13.4,13.4h183.7v458.2H301.4c-7.4,0-13.4,6-13.4,13.4c0,7.4,6,13.4,13.4,13.4h197.1
		c7.4,0,13.4-6,13.4-13.4V13.4C512,6,506,0,498.6,0L301.4,0C294,0,288,6,288,13.4z"/>
</g>
</svg>
