<?xml version="1.0" encoding="utf-8"?>
<!-- Generator: Adobe Illustrator 18.1.1, SVG Export Plug-In . SVG Version: 6.00 Build 0)  -->
<svg version="1.1" id="Capa_1" xmlns="http://www.w3.org/2000/svg" xmlns:xlink="http://www.w3.org/1999/xlink" x="0px" y="0px"
	 viewBox="0 0 512 512" enable-background="new 0 0 512 512" xml:space="preserve">
<path d="M506,217.2c5.4-5.3,7.3-13.2,5-20.3c-2.3-7.2-8.5-12.4-16-13.5l-142.6-20.7c-6.5-1-12-5-14.9-10.8L273.8,22.6
	c-3.3-6.8-10.2-11.1-17.8-11.1c-7.6,0-14.4,4.3-17.7,11.1l-63.8,129.2c-2.9,5.8-8.5,9.9-14.9,10.8L17,183.3
	c-7.5,1.1-13.7,6.3-16,13.5c-2.3,7.2-0.4,15.1,5,20.3l103.2,100.5c4.6,4.5,6.8,11.1,5.7,17.5l-24.3,142c-1.2,7.4,1.8,14.9,7.9,19.4
	c6.1,4.4,14.2,5,20.9,1.5l127.6-67c5.8-3.1,12.7-3.1,18.4,0l127.5,67c6.7,3.5,14.8,2.9,20.9-1.5c6.1-4.5,9.2-12,7.9-19.4l-24.3-142
	c-1.1-6.4,1-13,5.7-17.5L506,217.2z M372.1,330.3l22.2,129.6c0.3,1.9-0.5,4-2.1,5.1c-1.6,1.2-3.8,1.4-5.6,0.4l-116.3-61.1
	c-4.4-2.4-9.4-3.6-14.4-3.6s-10,1.3-14.4,3.6l-116.4,61.1c-1.8,0.9-4,0.7-5.4-0.4c-1.7-1.2-2.5-3.3-2.1-5.2l22.2-129.4
	c1.8-10-1.5-20.3-8.8-27.4l-94.1-91.7c-1.5-1.4-2-3.5-1.3-5.5c0.6-1.9,2.2-3.3,4.3-3.5l130.1-18.9c10.1-1.5,18.8-7.8,23.2-16.9
	l58.2-117.9c1.8-3.6,7.6-3.6,9.4,0l58.1,117.9c4.5,9,13.2,15.3,23.2,16.8l130.1,18.9c2,0.3,3.6,1.7,4.2,3.6s0.1,4-1.4,5.4l-94,91.7
	C373.8,310,370.4,320.2,372.1,330.3z"/>
</svg>
