<?xml version="1.0" encoding="utf-8"?>
<!-- Generator: Adobe Illustrator 18.1.1, SVG Export Plug-In . SVG Version: 6.00 Build 0)  -->
<svg version="1.1" id="Capa_1" xmlns="http://www.w3.org/2000/svg" xmlns:xlink="http://www.w3.org/1999/xlink" x="0px" y="0px"
	 viewBox="0 0 512 512" enable-background="new 0 0 512 512" xml:space="preserve">
<path d="M365.2,121.1l-1.2,1.2c-4.8,4.8-12.6,4.8-17.4,0l-77.3-77.3v454.6c0,6.8-5.5,12.3-12.3,12.3h-1.8c-6.8,0-12.3-5.5-12.3-12.3
	V45.1l-77.3,77.3c-4.8,4.8-12.6,4.8-17.4,0l-1.2-1.2c-4.8-4.8-4.8-12.6,0-17.4l98.6-98.6c2.3-3,5.7-5.1,9.7-5.1h1.8
	c4,0,7.5,2.1,9.7,5.1l98.6,98.6C370,108.5,370,116.3,365.2,121.1z"/>
</svg>
