<?xml version="1.0" encoding="utf-8"?>
<!-- Generator: Adobe Illustrator 18.1.1, SVG Export Plug-In . SVG Version: 6.00 Build 0)  -->
<svg version="1.1" id="Capa_1" xmlns="http://www.w3.org/2000/svg" xmlns:xlink="http://www.w3.org/1999/xlink" x="0px" y="0px"
	 viewBox="0 0 512 512" enable-background="new 0 0 512 512" xml:space="preserve">
<path d="M448,160c-17.6,0-32,14.4-32,32v128c0,17.6,14.4,32,32,32s32-14.4,32-32V192C480,174.4,465.6,160,448,160z M64,160
	c-17.6,0-32,14.4-32,32v128c0,17.6,14.4,32,32,32s32-14.4,32-32V192C96,174.4,81.6,160,64,160z M112,368c0,26.5,21.5,48,48,48h16v64
	c0,17.6,14.4,32,32,32s32-14.4,32-32v-64h32v64c0,17.6,14.4,32,32,32s32-14.4,32-32v-64h16c26.5,0,48-21.5,48-48V192H112V368z
	 M315.3,44.7l20.2-38.9c1-2,0.3-4.4-1.7-5.4c-1.9-1-4.4-0.2-5.4,1.7l-20.6,39.5C291.8,35.4,274.3,32,256,32
	c-18.3,0-35.8,3.4-51.9,9.6L183.5,2.2c-1-1.9-3.4-2.7-5.4-1.7c-1.9,1-2.7,3.4-1.7,5.4l20.2,38.9c-45.3,20.5-78.1,63.8-83.8,115.2
	h286.2C393.4,108.6,360.6,65.3,315.3,44.7L315.3,44.7z M192,135.2c-12.8,0-23.2-10.4-23.2-23.2c0-12.8,10.4-23.2,23.2-23.2
	s23.2,10.4,23.2,23.2C215.2,124.8,204.8,135.2,192,135.2z M320,135.2c-12.8,0-23.2-10.4-23.2-23.2c0-12.8,10.4-23.2,23.2-23.2
	c12.8,0,23.2,10.4,23.2,23.2C343.2,124.8,332.8,135.2,320,135.2z"/>
</svg>
