<?xml version="1.0" encoding="utf-8"?>
<!-- Generator: Adobe Illustrator 18.1.1, SVG Export Plug-In . SVG Version: 6.00 Build 0)  -->
<svg version="1.1" id="Capa_1" xmlns="http://www.w3.org/2000/svg" xmlns:xlink="http://www.w3.org/1999/xlink" x="0px" y="0px"
	 viewBox="0 0 512 512" enable-background="new 0 0 512 512" xml:space="preserve">
<g>
	<path d="M0.6,265.7V330c0,43.8,40.3,105.1,100,124.6L82,487c-3,5-0.2,12.2,6.2,16c6.4,3.8,14,2.7,17-2.3l23.3-40.3
		c3.6,0.3,7.2,0.7,10.8,0.7h197.9c8.6,0,17.8-1.4,27.1-3.7l25.1,43.4c3,5,10.6,6.1,17,2.3c6.4-3.8,9.2-10.9,6.2-16l-22.6-39.1
		c41-19.6,78.1-60.5,78.1-116.5v-56.3h33.3c5.8,0,10.6-6,10.6-13.4c0-7.4-4.8-13.4-10.6-13.4H26.2V127.1c0-0.8-0.7-24.9,15-41.1
		c10.1-10.5,25.4-15.8,45.3-15.8c17.1,0,30.1,4.9,39.9,15c20,20.7,19.1,56.3,19.1,56.7c-0.2,7.1,5.3,13,12.4,13.2
		c7.7,0.3,13-5.2,13.2-12.3c0.1-1.9,1.4-46.7-26.2-75.3c-14.6-15.2-34.3-22.9-58.4-22.9c-27.3,0-48.8,8.1-64,23.9
		C-0.7,92.8,0.6,126.3,0.6,127.7v129.9c-0.3,1.3-0.6,2.6-0.6,4C0,263.1,0.3,264.4,0.6,265.7z M26.2,330v-54.9h416.2v56.3
		c0,68.2-68.6,103.9-105.3,103.9H139.2C74.8,435.4,26.2,371.5,26.2,330z"/>
	<circle cx="304.9" cy="174.2" r="32"/>
	<circle cx="363.3" cy="44.9" r="38.1"/>
	<circle cx="459.9" cy="150.5" r="23.4"/>
</g>
</svg>
