<?xml version="1.0" encoding="utf-8"?>
<!-- Generator: Adobe Illustrator 18.1.1, SVG Export Plug-In . SVG Version: 6.00 Build 0)  -->
<svg version="1.1" id="Capa_1" xmlns="http://www.w3.org/2000/svg" xmlns:xlink="http://www.w3.org/1999/xlink" x="0px" y="0px"
	 viewBox="0 0 512 512" enable-background="new 0 0 512 512" xml:space="preserve">
<path d="M284,256L506.2,33.8c7.7-7.7,7.7-20.3,0-28c-7.7-7.7-20.3-7.7-28,0L256,228L33.8,5.8c-7.7-7.7-20.3-7.7-28,0s-7.7,20.3,0,28
	L228,256L5.8,478.2c-7.7,7.7-7.7,20.3,0,28c7.7,7.7,20.3,7.7,28,0L256,284l222.2,222.2c7.7,7.7,20.3,7.7,28,0c7.7-7.7,7.7-20.3,0-28
	L284,256z"/>
</svg>
