<?xml version="1.0" encoding="utf-8"?>
<!-- Generator: Adobe Illustrator 18.1.1, SVG Export Plug-In . SVG Version: 6.00 Build 0)  -->
<svg version="1.1" id="Capa_1" xmlns="http://www.w3.org/2000/svg" xmlns:xlink="http://www.w3.org/1999/xlink" x="0px" y="0px"
	 viewBox="0 0 512 512" enable-background="new 0 0 512 512" xml:space="preserve">
<g>
	<path d="M245.4,408.9c2.3,3,5.7,5.1,9.7,5.1h1.8c4,0,7.5-2.1,9.7-5.1l98.6-98.6c4.8-4.8,4.8-12.6,0-17.4l-1.2-1.2
		c-4.8-4.8-12.6-4.8-17.4,0l-77.3,77.3V12.3c0-6.8-5.5-12.3-12.3-12.3h-1.8c-6.8,0-12.3,5.5-12.3,12.3v356.6l-77.3-77.3
		c-4.8-4.8-12.6-4.8-17.4,0l-1.2,1.2c-4.8,4.8-4.8,12.6,0,17.4L245.4,408.9z"/>
	<path d="M498.6,288c-7.4,0-13.4,6-13.4,13.4v183.7H26.9V301.4c0-7.4-6-13.4-13.4-13.4C6,288,0,294,0,301.4v197.1
		C0,506,6,512,13.4,512h485.1c7.4,0,13.4-6,13.4-13.4V301.4C512,294,506,288,498.6,288z"/>
</g>
</svg>
