<?xml version="1.0" encoding="utf-8"?>
<!-- Generator: Adobe Illustrator 18.1.1, SVG Export Plug-In . SVG Version: 6.00 Build 0)  -->
<svg version="1.1" id="Capa_1" xmlns="http://www.w3.org/2000/svg" xmlns:xlink="http://www.w3.org/1999/xlink" x="0px" y="0px"
	 viewBox="0 0 512 512" enable-background="new 0 0 512 512" xml:space="preserve">
<g>
	<path d="M512,121.8C512,121.8,512,121.8,512,121.8c0-1.4-0.3-2.7-0.8-3.8s-1.2-2.2-2.1-3.1c-1.8-1.8-4.3-2.9-7-2.9H347.4L305,69.6
		c-1.2-1.2-2.6-1.9-4.1-2.3c-1.2-0.5-2.5-0.9-4-0.9h-80.6c-1.5,0-2.9,0.4-4.2,1c-1.2,0.5-2.4,1.2-3.4,2.2l-42.3,42.3H9.9
		c-5.4,0-9.9,4.4-9.9,9.9v314c0,5.4,4.4,9.9,9.9,9.9h492.3c2.7,0,5.2-1.1,7-2.9c0.9-0.9,1.6-2,2.1-3.1c0.5-1.2,0.8-2.5,0.8-3.8l0,0
		V121.8z M171.3,131.7c1.1,0,2.1-0.3,3.1-0.6c1.5-0.5,2.9-1.1,4.1-2.3l41.9-41.9h73l41.9,41.9c2,2,4.4,3.1,7.1,3c0.5,0,0.8,0,1.1,0
		h148.8v294.2H19.7V131.7H171.3z"/>
	<path d="M60.5,180h28.3c5.4,0,9.9-4.4,9.9-9.9v-0.7c0-5.4-4.4-9.9-9.9-9.9H60.5c-5.4,0-9.9,4.4-9.9,9.9v0.7
		C50.7,175.6,55.1,180,60.5,180z"/>
	<path d="M254.4,396.9h3.1c61.3,0,111.2-49.9,111.2-111.2v-3.1c0-61.3-49.9-111.2-111.2-111.2h-3.1c-61.3,0-111.2,49.9-111.2,111.2
		v3.1C143.2,347,193.1,396.9,254.4,396.9z M162,282.6c0-51,41.5-92.4,92.4-92.4h3.1c51,0,92.4,41.5,92.4,92.4v3.1
		c0,51-41.5,92.4-92.4,92.4h-3.1c-51,0-92.4-41.5-92.4-92.4V282.6z"/>
</g>
</svg>
