<?xml version="1.0" encoding="utf-8"?>
<!-- Generator: Adobe Illustrator 18.1.1, SVG Export Plug-In . SVG Version: 6.00 Build 0)  -->
<svg version="1.1" id="Capa_1" xmlns="http://www.w3.org/2000/svg" xmlns:xlink="http://www.w3.org/1999/xlink" x="0px" y="0px"
	 viewBox="0 0 512 512" enable-background="new 0 0 512 512" xml:space="preserve">
<g>
	<path d="M421.6,103.2c0.5-3.2-0.3-6.5-2.8-9l-1.1-1.1c-2.4-2.4-5.8-3.3-9-2.8l-119.3,0c-5.8,0-10.5,4.7-10.5,10.5v1.5
		c0,5.8,4.7,10.5,10.5,10.5H383L167.3,328.8c-4.1,4.1-4.1,10.8,0,14.9l1.1,1.1c4.1,4.1,10.8,4.1,14.9,0L399,129l0,93.5
		c0,5.8,4.7,10.5,10.5,10.5l1.5,0c5.8,0,10.5-4.7,10.5-10.5L421.6,103.2z"/>
	<path d="M500.5,0H254.1H164H85.4c-6.3,0-11.5,5.2-11.5,11.5v415.1c0,6.3,5.2,11.5,11.5,11.5H164h90.1h246.4
		c6.3,0,11.5-5.2,11.5-11.5V11.5C512,5.2,506.8,0,500.5,0z M489,415.1H254.1H164H96.9V23H164h90.1H489V415.1z"/>
	<path d="M285.2,485.1H26.9v-260l-0.3,0c-0.9-6.6-6.3-11.8-13.1-11.8c-7.4,0-13.4,6-13.4,13.4v271.8C0,506,6,512,13.4,512h271.8
		c7.4,0,13.4-6,13.4-13.4C298.7,491.2,292.6,485.1,285.2,485.1z"/>
</g>
</svg>
