<?xml version="1.0" encoding="utf-8"?>
<!-- Generator: Adobe Illustrator 18.1.1, SVG Export Plug-In . SVG Version: 6.00 Build 0)  -->
<svg version="1.1" id="Capa_1" xmlns="http://www.w3.org/2000/svg" xmlns:xlink="http://www.w3.org/1999/xlink" x="0px" y="0px"
	 viewBox="0 0 512 512" enable-background="new 0 0 512 512" xml:space="preserve">
<g>
	<path d="M0,69.3V43.7C0,43.3,0.3,43,0.6,43h510.7c0.3,0,0.6,0.3,0.6,0.6v25.6c0,0.3-0.3,0.6-0.6,0.6H0.6C0.3,69.9,0,69.6,0,69.3z"
		/>
	<path d="M0,201.8v-25.6c0-0.3,0.3-0.6,0.6-0.6h510.7c0.3,0,0.6,0.3,0.6,0.6v25.6c0,0.3-0.3,0.6-0.6,0.6H0.6
		C0.3,202.4,0,202.1,0,201.8z"/>
	<path d="M0,335.3v-25.6c0-0.3,0.3-0.6,0.6-0.6h510.7c0.3,0,0.6,0.3,0.6,0.6v25.6c0,0.3-0.3,0.6-0.6,0.6H0.6
		C0.3,336,0,335.7,0,335.3z"/>
	<path d="M0,468.3v-25.6c0-0.3,0.3-0.6,0.6-0.6h510.7c0.3,0,0.6,0.3,0.6,0.6v25.6c0,0.3-0.3,0.6-0.6,0.6H0.6
		C0.3,469,0,468.7,0,468.3z"/>
</g>
</svg>
