<?xml version="1.0" encoding="utf-8"?>
<!-- Generator: Adobe Illustrator 18.1.1, SVG Export Plug-In . SVG Version: 6.00 Build 0)  -->
<svg version="1.1" id="Capa_1" xmlns="http://www.w3.org/2000/svg" xmlns:xlink="http://www.w3.org/1999/xlink" x="0px" y="0px"
	 viewBox="0 0 512 512" enable-background="new 0 0 512 512" xml:space="preserve">
<g>
	<g>
		<path fill="#010202" d="M219.6,512c-5.1,0-10.3-1.9-14.1-5.8c-5.1-5.1-7.7-12.8-7.7-22.5c0-48.3,0-97.1,0-144.1
			c0-26.4,0-53.4,0-79.7c0-2.6-0.6-3.2-1.3-3.8c-29.6-41.1-59.2-82.4-88.8-124.1C87,102.9,65.9,73.3,45.2,44.4
			c-3.8-5.1-7.7-12.8-6.4-23.2C40.7,8.4,49.1,0,61.4,0c17.4,0,35.4,0,52.8,0h64.3h155c34.1,0,74.6,0,115.8,0
			c15.4,0,21.3,10.9,23.2,17.4c3.8,14.1-3.2,23.8-5.8,27.7c-20,28.3-39.9,56-60.5,84.3c-29.6,41.1-60.5,84.3-90.7,126.7
			c-0.6,1.3-1.3,1.9-1.3,5.1c0,20.6,0,41.8,0,62.4c0,32.2,0,65.6,0,97.8c0,14.1-3.8,23.2-13.5,30.9c-27.7,21.3-48.3,38.6-67.5,54.7
			C229.8,510.1,224.7,512,219.6,512z M65.1,25.4c0,1.3-0.6,1.1,1.4,3.6c20.6,29,41.8,58.5,62.4,87.5c29.6,41.1,59.2,82.4,88.8,124.1
			c3.8,5.1,5.8,10.9,5.8,18.7c0,26.4,0,53.4,0,79.7c0,47.5,0,96.5,0,144.8c0,0,0,0,0,0.6c18.7-15.4,38.6-31.5,64.3-51.5
			c2.6-1.9,3.8-3.8,3.8-10.9c0-32.8,0-66.2,0-98.4c0-20.6,0-41.8,0-62.4c0-7.7,1.9-14.1,5.8-19.3c30.2-41.8,60.5-84.9,90.1-126.7
			c20-28.3,39.9-56,60.5-84.3c1.9-3.2,2.6-4.5,1.9-5.8c-40.5,0-81.1,0-115.2,0H179.6"/>
	</g>
</g>
</svg>
