<?xml version="1.0" encoding="utf-8"?>
<!-- Generator: Adobe Illustrator 18.1.1, SVG Export Plug-In . SVG Version: 6.00 Build 0)  -->
<svg version="1.1" id="Capa_1" xmlns="http://www.w3.org/2000/svg" xmlns:xlink="http://www.w3.org/1999/xlink" x="0px" y="0px"
	 viewBox="0 0 512 512" enable-background="new 0 0 512 512" xml:space="preserve">
<g>
	<path d="M369,143C276.8,50.8,154.3,0,24,0C10.7,0,0,10.7,0,23.9v77.4c0,13.2,10.7,23.9,24,23.9c96.9,0,188,37.8,256.5,106.3
		C349,300,386.8,391.2,386.8,488.1c0,13.2,10.7,23.9,23.9,23.9h77.4c13.2,0,23.9-10.7,23.9-24C512,357.7,461.2,235.1,369,143z
		 M478.3,480h-57.5c-3.7,0-6.7-2.9-6.7-6.6c0-95-46.3-195.8-114.8-263.1c-68.5-67.2-168.9-112-265.7-112c-3.7,0-6.7-2.9-6.7-6.5
		V33.6c0-3.6,3-6.5,6.7-6.5c120.1,0,235.2,52.6,320.2,136C438.7,246.4,485,355.5,485,473.4C485,477.1,482,480,478.3,480z"/>
	<path d="M24,170.2c-13.2,0-24,10.7-24,23.9v77.3c0,13.2,10.7,24,24,24c51.4,0,99.8,20,136.2,56.4c36.4,36.4,56.4,84.8,56.4,136.2
		c0,13.2,10.7,23.9,23.9,23.9h77.4c13.2,0,23.9-10.7,23.9-23.9c0-84.9-33-164.7-93.1-224.8C188.6,203.2,108.8,170.2,24,170.2z
		 M308.4,479.7h-59c-3.5,0-6.3-2.8-6.3-6.3c0-50.4-24.4-102.2-60-137.9c-35.7-35.7-99.5-66.7-149.9-66.7c-3.5,0-6.3-2.8-6.3-6.3v-59
		c0-3.5,2.8-6.3,6.3-6.3c72.3,0,146.7,34,197.9,85.1c51.2,51.2,83.7,118.6,83.7,191.1C314.8,476.9,311.9,479.7,308.4,479.7z"/>
	<path d="M78.1,355.8C35,355.8,0,390.8,0,433.9C0,477,35,512,78.1,512c43,0,78.1-35,78.1-78.1C156.2,390.8,121.1,355.8,78.1,355.8z
		 M78.1,485.1c-28.2,0-51.2-23-51.2-51.2c0-28.3,23-51.2,51.2-51.2c28.2,0,51.2,23,51.2,51.2C129.3,462.1,106.3,485.1,78.1,485.1z"
		/>
</g>
</svg>
