<?xml version="1.0" encoding="utf-8"?>
<!-- Generator: Adobe Illustrator 18.1.1, SVG Export Plug-In . SVG Version: 6.00 Build 0)  -->
<svg version="1.1" id="Capa_1" xmlns="http://www.w3.org/2000/svg" xmlns:xlink="http://www.w3.org/1999/xlink" x="0px" y="0px"
	 viewBox="0 0 512 512" enable-background="new 0 0 512 512" xml:space="preserve">
<g>
	<path d="M256.2,226.4c41.2,0,74.7-33.5,74.7-74.7S297.4,77,256.2,77s-74.7,33.5-74.7,74.7S215.1,226.4,256.2,226.4z M256.2,103.3
		c26.7,0,48.4,21.7,48.4,48.4c0,26.6-21.7,48.3-48.4,48.3c-26.6,0-48.3-21.7-48.3-48.3C207.9,125,229.6,103.3,256.2,103.3z"/>
	<path d="M241.7,504.2c2.2,4.8,7,7.5,11.9,7.7c0.3,0,0.5,0.1,0.8,0.1c0.3,0,0.5-0.1,0.8-0.1c5-0.2,9.7-2.9,11.9-7.7
		c0,0,133.4-284.2,133.2-284.4c8.3-19.1,13.4-40,13.4-62.2C413.6,70.7,342.9,0,256,0S98.4,70.7,98.4,157.6c0,20.6,4.4,40,11.6,58.1
		 M256,26.3c72.4,0,131.3,58.9,131.3,131.3c0,20.6-8.3,43.5-16.5,62l0,0L254.5,467.1L145.8,231.8l0,0c0,0,0,0,0-0.1l-8.5-18.3
		c-7.3-17.5-12.7-36.4-12.7-55.8C124.7,85.2,183.6,26.3,256,26.3z"/>
</g>
</svg>
