<?xml version="1.0" encoding="utf-8"?>
<!-- Generator: Adobe Illustrator 18.1.1, SVG Export Plug-In . SVG Version: 6.00 Build 0)  -->
<svg version="1.1" id="Capa_1" xmlns="http://www.w3.org/2000/svg" xmlns:xlink="http://www.w3.org/1999/xlink" x="0px" y="0px"
	 viewBox="0 0 512 512" enable-background="new 0 0 512 512" xml:space="preserve">
<path d="M512,170.2c0-41.9-12.1-74.6-36.3-98.3S418,36.5,375.4,36.5c-11.8,0-23.8,2-36.1,6.1c-12.3,4.1-23.7,9.6-34.3,16.6
	c-10.6,6.9-19.6,13.4-27.3,19.5S262.8,91.4,256,98.2c-6.8-6.8-14-13.3-21.7-19.4c-7.6-6.1-16.7-12.6-27.3-19.5
	c-10.6-6.9-22-12.4-34.3-16.5c-12.3-4.1-24.3-6.1-36.1-6.1C94,36.6,60.5,48.4,36.3,72S0,128.3,0,170.2c0,12.7,2.2,26,6.7,39.4
	c4.5,13.5,9.6,25,15.3,34.6c5.7,9.6,12.2,18.8,19.4,27.9c7.2,9.1,12.5,15.3,15.9,18.7c3.4,3.5,5.9,5.9,7.8,7.4l178.3,172
	c3.5,3.5,7.6,5.2,12.5,5.2l0,0c5,0,9.2-1.7,12.5-5.2l178-171.4C490.2,255.2,512,212.4,512,170.2z M256,447.6L81.6,279.5l-0.9-0.7
	c-0.4-0.3-1.8-1.5-5.5-5.3c-1.5-1.6-5.5-5.9-14.3-16.9c-6.5-8.1-12.4-16.6-17.5-25.1c-4.7-7.8-9.1-17.8-13-29.5
	C26.9,191,25,180.4,25,170.3c0-35.2,9.4-61.5,28.7-80.4c19.5-19,46.6-28.3,82.9-28.3c9.1,0,18.5,1.6,28.2,4.9
	c10.2,3.4,19.7,8,28.5,13.7c9.9,6.5,18.4,12.6,25.4,18.2c6.9,5.5,13.4,11.4,19.6,17.6l17.7,17.7l17.7-17.7
	c6.1-6.1,12.7-12.1,19.6-17.6c6.9-5.5,15.5-11.7,25.4-18.2c8.7-5.7,18.3-10.4,28.5-13.7c9.7-3.3,19.1-4.9,28.2-4.9
	c36.2,0,63.3,9.3,82.9,28.3c19.3,18.9,28.7,45.2,28.7,80.4c0,35-19.5,72.3-57.9,110.7L256,447.6z"/>
</svg>
