<?xml version="1.0" encoding="utf-8"?>
<!-- Generator: Adobe Illustrator 18.1.1, SVG Export Plug-In . SVG Version: 6.00 Build 0)  -->
<svg version="1.1" id="Capa_1" xmlns="http://www.w3.org/2000/svg" xmlns:xlink="http://www.w3.org/1999/xlink" x="0px" y="0px"
	 viewBox="0 0 512 512" enable-background="new 0 0 512 512" xml:space="preserve">
<g>
	<path d="M369.2,0H142.8c-17.7,0-32.3,14.4-32.3,31.9v448.2c0,17.5,14.7,31.9,32.3,31.9h226.4c17.7,0,32.3-14.4,32.3-31.9V31.9
		C401.5,14.4,386.9,0,369.2,0z M231.8,16h48.5c4.4,0,8,3.6,8,8c0,4.4-3.6,8-8,8h-48.5c-4.4,0-8-3.6-8-8
		C223.8,19.6,227.4,16,231.8,16z M256.1,486.7c-12.7,0-23.1-10.3-23.1-22.8c0-12.5,10.3-22.6,23.1-22.6c12.7,0,22.8,10.1,22.8,22.6
		C278.9,476.4,268.8,486.7,256.1,486.7z M366.5,415.9h-221V48h221L366.5,415.9L366.5,415.9z"/>
</g>
</svg>
