<?xml version="1.0" encoding="utf-8"?>
<!-- Generator: Adobe Illustrator 18.1.1, SVG Export Plug-In . SVG Version: 6.00 Build 0)  -->
<svg version="1.1" id="Capa_1" xmlns="http://www.w3.org/2000/svg" xmlns:xlink="http://www.w3.org/1999/xlink" x="0px" y="0px"
	 viewBox="0 0 512 512" enable-background="new 0 0 512 512" xml:space="preserve">
<path d="M454.5,29.6c-0.1-8.2-6.4-14.4-14.5-14.4c-6.5,0-12.9,3.7-26.8,12.1c-16.6,10-41.6,25.1-60,25.1c-32.4,0-64.3-8.8-87.5-24.1
	C238.4,10.3,201.4,0,164.2,0c-42,0-78.1,20.7-101.5,36.2L56.9,40v9.6v259.3v189.8c0,7.4,6,13.4,13.4,13.4s13.4-6,13.4-13.4V291.3
	c20.5-12.9,49.1-27.5,80.5-27.5c32.4,0,64.3,8.8,87.5,24.1c27.3,17.9,64.3,28.2,101.5,28.2c35.5,0,100.2-23.9,101.4-47.4
	C455.6,246.9,454.7,40.1,454.5,29.6z M429.2,264.9c-8.1,8-46.2,25.8-76,25.8c-32.3,0-64.3-8.8-87.5-24
	c-27.2-18-64.2-28.3-101.5-28.3c-25.4,0-51.9,7.8-80.5,23.5V52.9c20.5-12.9,49.1-27.5,80.5-27.5c32.4,0,64.3,8.8,87.4,24.1
	c27.3,18,64.3,28.3,101.5,28.3c25.5,0,53-16.6,73.2-28.8c0.9-0.6,1.9-1.1,2.9-1.7C429.5,98.4,429.9,238.7,429.2,264.9z"/>
</svg>
