<?xml version="1.0" encoding="utf-8"?>
<!-- Generator: Adobe Illustrator 18.1.1, SVG Export Plug-In . SVG Version: 6.00 Build 0)  -->
<svg version="1.1" id="Capa_1" xmlns="http://www.w3.org/2000/svg" xmlns:xlink="http://www.w3.org/1999/xlink" x="0px" y="0px"
	 viewBox="0 0 512 512" enable-background="new 0 0 512 512" xml:space="preserve">
<g>
	<path d="M498.6,36.9h-94c-7.4,0-13.4,6-13.4,13.4v135.6H255.5c-7.4,0-13.4,6-13.4,13.4V335H106.5c-7.4,0-13.4,6-13.4,13.4V484H13.4
		C6,484,0,490.1,0,497.4s6,13.4,13.4,13.4h93c7.4,0,13.4-6,13.4-13.4V361.8h135.6c7.4,0,13.4-6,13.4-13.4V212.8h135.6
		c7.4,0,13.4-6,13.4-13.4V63.7h80.6c7.4,0,13.4-6,13.4-13.4S506,36.9,498.6,36.9z"/>
	<path d="M61.1,196.8c4.8,4.8,12.6,4.8,17.4,0L229,46.3l0,66.5c0,6.8,5.5,12.3,12.3,12.3l1.7,0c6.8,0,12.3-5.5,12.3-12.3V16.3
		c0.6-3.7-0.4-7.6-3.2-10.5l-1.2-1.2c-2.9-2.9-6.8-3.8-10.5-3.2h-96.5c-6.8,0-12.3,5.5-12.3,12.3v1.7c0,6.8,5.5,12.3,12.3,12.3h66.5
		L59.9,178.1c-4.8,4.8-4.8,12.6,0,17.4L61.1,196.8z"/>
</g>
</svg>
