<?xml version="1.0" encoding="utf-8"?>
<!-- Generator: Adobe Illustrator 18.1.1, SVG Export Plug-In . SVG Version: 6.00 Build 0)  -->
<svg version="1.1" id="Capa_1" xmlns="http://www.w3.org/2000/svg" xmlns:xlink="http://www.w3.org/1999/xlink" x="0px" y="0px"
	 viewBox="0 0 512 512" enable-background="new 0 0 512 512" xml:space="preserve">
<g>
	<path d="M256,0C114.6,0,0,114.6,0,256s114.6,256,256,256s256-114.6,256-256S397.4,0,256,0z M280.8,342.1
		c-23.3-1.8-33-13.3-51.2-24.4c-10,52.6-22.3,103-58.6,129.3c-11.2-79.5,16.4-139.2,29.3-202.6c-21.9-36.8,2.6-111,48.8-92.7
		c56.8,22.5-49.2,137,22,151.3c74.3,14.9,104.6-128.9,58.6-175.7c-66.6-67.6-193.8-1.5-178.2,95.2c3.8,23.6,28.2,30.8,9.8,63.5
		c-42.6-9.4-55.3-43.1-53.7-87.9c2.6-73.3,65.9-124.7,129.3-131.8c80.2-9,155.6,29.5,165.9,104.9
		C414.5,256.5,366.6,348.7,280.8,342.1L280.8,342.1z"/>
</g>
</svg>
