<?xml version="1.0" encoding="utf-8"?>
<!-- Generator: Adobe Illustrator 18.1.1, SVG Export Plug-In . SVG Version: 6.00 Build 0)  -->
<svg version="1.1" id="Capa_1" xmlns="http://www.w3.org/2000/svg" xmlns:xlink="http://www.w3.org/1999/xlink" x="0px" y="0px"
	 viewBox="0 0 512 512" enable-background="new 0 0 512 512" xml:space="preserve">
<g>
	<circle cx="397.7" cy="196" r="16.7"/>
	<path d="M155.1,378.9h201.8c6.8,0,12.2-5.4,12.2-12.2c0-6.8-5.4-12.2-12.2-12.2H155.1c-6.8,0-12.2,5.4-12.2,12.2
		C142.9,373.5,148.3,378.9,155.1,378.9z"/>
	<path d="M155.1,424.3h201.8c6.8,0,12.2-5.4,12.2-12.2c0-6.8-5.4-12.2-12.2-12.2H155.1c-6.8,0-12.2,5.4-12.2,12.2
		C142.9,418.8,148.3,424.3,155.1,424.3z"/>
	<path d="M481.5,106h-60.2c-0.3,0-0.6-0.1-0.9-0.1H410V12.2C410,5.4,404.6,0,397.8,0H114.4c-6.8,0-12.2,5.4-12.2,12.2V106H30.5
		c-6.8,0-12.2,5.4-12.2,12.2v61.2v3.6v145.2v41.2V393c0,6.8,5.4,12.2,12.2,12.2h71.6v94.6c0,6.8,5.4,12.2,12.2,12.2h283.4
		c6.8,0,12.2-5.4,12.2-12.2v-94.6h71.6c6.8,0,12.2-5.4,12.2-12.2v-62v-2.8V183v-3.7v-61.1C493.7,111.5,488.3,106,481.5,106z
		 M126.6,24.4h258.9v81.5H126.6V24.4z M385.5,487.5H126.6V336.5h258.9V487.5z M469.3,328.2L469.3,328.2l0,51.6H410v-43.3h26.5
		c6.8,0,12.2-5.4,12.2-12.2c0-6.8-5.4-12.2-12.2-12.2H79.3c-6.8,0-12.2,5.4-12.2,12.2c0,6.8,5.4,12.2,12.2,12.2h22.9v43.3H42.7
		v-46.6c0-0.8,0.1-1.5,0.1-2.3V179.3c0-1-0.1-1.9-0.1-2.9v-46h426.6V183h0V328.2z"/>
</g>
</svg>
