<?xml version="1.0" encoding="utf-8"?>
<!-- Generator: Adobe Illustrator 18.1.1, SVG Export Plug-In . SVG Version: 6.00 Build 0)  -->
<svg version="1.1" id="Capa_1" xmlns="http://www.w3.org/2000/svg" xmlns:xlink="http://www.w3.org/1999/xlink" x="0px" y="0px"
	 viewBox="0 0 512 512" enable-background="new 0 0 512 512" xml:space="preserve">
<g>
	<path d="M501.9,57.6c-6.9-1.5-13.8,2.9-15.3,9.8l-15.2,69.8C444.9,89.8,403.8,53.8,351,32.4C226.1-18.1,83.4,42.4,32.9,167.3
		c-2.7,6.6,0.5,14,7.1,16.7s14-0.5,16.7-7.1C101.9,65.1,229.6,11,341.4,56.2c47.6,19.2,84.6,51.7,108.2,94.4l-71.1-8.8
		c-7-0.9-13.4,4.1-14.3,11.2c-0.7,5.9,2.6,11.3,7.9,13.5c1,0.4,2.1,0.7,3.3,0.8l101.2,12.5c0.6,0.1,1.2-0.1,1.8-0.1
		c0.9,0,1.8,0,2.7-0.2c0.8-0.2,1.5-0.6,2.2-0.9c0.8-0.3,1.5-0.6,2.2-1.1c0.7-0.5,1.2-1.1,1.7-1.6c0.6-0.6,1.2-1.2,1.6-1.9
		c0.4-0.7,0.7-1.4,1-2.2c0.3-0.7,0.7-1.2,0.9-1.9l21.1-96.9C513.2,65.9,508.7,59,501.9,57.6z"/>
	<path d="M478.9,343.2c-6.4-3.1-14-0.5-17.1,5.9c-52.9,108.3-184.1,153.5-292.4,100.6c-46.1-22.5-80.7-57.5-101.4-101.8l70.4,13.7
		c7,1.4,13.7-3.2,15-10.1c1.1-5.8-1.8-11.5-6.9-14c-1-0.5-2.1-0.8-3.2-1L43.1,316.9c-0.6-0.1-1.2,0-1.8,0c-0.9,0-1.8-0.1-2.7,0
		c-0.8,0.1-1.5,0.5-2.3,0.7c-0.8,0.3-1.5,0.5-2.3,1c-0.7,0.4-1.2,1-1.8,1.5c-0.6,0.6-1.3,1.1-1.8,1.8c-0.5,0.6-0.8,1.4-1.1,2.1
		c-0.3,0.6-0.8,1.2-1,1.9L0.5,421.1c-2,6.8,2,14,8.7,15.9c6.8,2,13.9-1.9,15.9-8.7l20.1-68.6c23.1,49.2,61.7,88,112.8,112.9
		c121.1,59.1,267.6,8.7,326.7-112.4C487.9,354,485.2,346.3,478.9,343.2z"/>
</g>
</svg>
