<?xml version="1.0" encoding="utf-8"?>
<!-- Generator: Adobe Illustrator 18.1.1, SVG Export Plug-In . SVG Version: 6.00 Build 0)  -->
<svg version="1.1" id="Capa_1" xmlns="http://www.w3.org/2000/svg" xmlns:xlink="http://www.w3.org/1999/xlink" x="0px" y="0px"
	 viewBox="0 0 512 512" enable-background="new 0 0 512 512" xml:space="preserve">
<g>
	<g>
		<path d="M0,512.5c0-66.7,0-133.5,0-200S0,114.7,0,48.1c55.5,0,110.8,0,166.3,0s134.4,0,190.5,0c-3.8,3.8-7.3,7.4-10.8,10.9
			c-3.5,3.5-6.8,6.7-10.5,10c-0.7,0.7-1.9,0.9-3.3,1c-1.3,0.1-2.8,0-4,0c-45.7,0-114.6,0-160.2,0s-91.4,0-137,0c-1.3,0-2.8,0-4.1,0
			c-1.4,0-2.9,0-4.4,0c0,59.4,0,183,0,242.3s0,118.4,0,177.8c62.9,0,125.7,0,188.7,0s126.1,0,189.5,0c0-1.2,0-2.6,0-3.9s0-2.7,0-4
			c0-42,0-84,0-125.9s0-84-0.1-125.9c0-2.5,0.3-4.7,1-6.6c0.8-1.9,2-3.7,3.9-5.4c2.8-2.6,5.4-5.1,8.3-8.1c2.8-2.9,5.5-5.8,8.8-9.1
			c0,52.3,0,104.2,0,156.1s0,103.4,0,155.2c-70.3,0-140.6,0-210.9,0S70.6,512.5,0,512.5z"/>
		<path d="M457.2,67.2c2.8,3,5.2,5.7,8,8.8c2.7,3,5.5,6,8.9,9.8c-0.7,0.3-1.7,0.6-2.8,1.1c-1.1,0.4-2.2,1-3.1,1.9
			c-40.3,40.2-80.4,80.2-120.7,120.4S267,289.4,226.7,329.5c-1.2,1.2-2.9,2.2-4.6,3c-1.7,0.7-3.7,1.1-5.4,1.2
			c-6.3,0.2-12.7,0.3-19.1,0.3s-13-0.1-19.6-0.1c0-7.3,0-14.5,0-21.7c0-7.1,0-14.2,0.2-21.2c0-1.1,0.6-2.4,1.4-3.5
			c0.8-1.1,1.8-2.2,2.8-3.2c30.6-30.6,61.1-61.2,91.7-91.8s61.1-61.1,91.7-91.8c10.3-10.3,20.6-20.6,31-31
			c10.4-10.4,20.6-20.7,31.2-31.3c2.6,2.8,5,5.4,7.5,8.1c2.5,2.7,4.9,5.2,7.4,8c-39.6,39.7-79.1,79.2-118.7,118.8
			s-79.3,79.3-119.1,119.1c2.5,2.5,4.8,4.8,7.1,7c2.2,2.2,4.3,4.3,6.4,6.4c39.7-39.7,79.2-79.3,119-119S417.3,107.2,457.2,67.2z"/>
		<path d="M490.4,66.3c-7.5-7.5-15-14.9-22.5-22.4s-15-15-22.8-22.6c2.9-2.8,5.8-5.8,9-9c3.1-3.1,6.3-6,9.9-8.9
			c3.7-2.9,8.2-4.1,12.6-3.8c4.4,0.3,8.8,2.2,12.4,5.4c3.1,2.8,6,5.6,9.1,8.7c3,3,5.8,5.9,8.7,9.1c3.4,3.7,5.1,8.4,5.3,13
			c0.2,4.6-1.3,9.3-4.6,13.1c-2.7,3.2-5.5,6-8.5,9C496.1,60.9,493.2,63.7,490.4,66.3z"/>
	</g>
</g>
</svg>
