<?xml version="1.0" encoding="utf-8"?>
<!-- Generator: Adobe Illustrator 18.1.1, SVG Export Plug-In . SVG Version: 6.00 Build 0)  -->
<svg version="1.1" id="Capa_1" xmlns="http://www.w3.org/2000/svg" xmlns:xlink="http://www.w3.org/1999/xlink" x="0px" y="0px"
	 viewBox="0 0 512 512" enable-background="new 0 0 512 512" xml:space="preserve">
<g>
	<path fill="#010202" d="M175.3,307.1c-25.3,19-51,32.9-83.3,23.3c-33.9-10.2-54-33-58.7-67.2c-4.3-31.1,8.5-57,34.7-74.6
		c28.1-18.9,58.9-20.7,86.5-1.5c16.7,11.7,27.5,9.8,43,0.4c36.3-22.1,73.3-42.8,110.5-63.3c12.7-7,17-13.5,13.4-29.7
		c-8.4-38.6,13.8-75.9,49.4-89.2C406-8,445.2,4.5,466.1,35.7c21.1,31.5,17.1,72.3-9.9,99.4c-27.3,27.4-67.6,32-101.5,9.5
		c-12.2-8.1-20.7-9.5-33.6-1.7c-38.6,23.3-78.2,45.2-117.6,67.3c-11.4,6.4-20.8,11.8-17.9,18.4c4.4,9.9,4.1,45.7,0.3,54.2
		c-4.7,10.7,16.4,14.6,38.4,27.8c31.8,19,63.1,38.8,94.1,59.1c11.7,7.7,19.9,10,33.1,0.3c34.9-25.4,75.1-21.9,103.8,6.2
		c26.6,26,31.8,65.2,12.8,97c-19.7,32.8-60.2,47.2-96.5,34c-37-13.3-55.9-48.1-51.3-91.3c0.7-7-2.5-18.2-7.7-21.6
		C267.5,364.5,221.3,336,175.3,307.1z M455.4,80.1c0.3-31.8-23.9-56.2-56-56.3c-31.1,0-55.1,22.9-56,53.5
		c-0.9,31.9,22.9,57.1,54.6,57.8C429.9,135.8,455.1,111.6,455.4,80.1z M455.4,432.9c0.1-31.6-24.7-56.2-56.4-56
		c-31.6,0.2-56,25.1-55.6,56.9c0.4,30.7,24,54,55.1,54.4C430.7,488.5,455.3,464.6,455.4,432.9z M168.6,252.7
		c-0.5-31.2-26.4-55.8-57.7-54.8s-55.3,26.8-54.2,58.3c1.1,30.4,25.3,53.2,56.4,52.9C145.2,309,169.2,284.6,168.6,252.7z"/>
</g>
</svg>
