<?xml version="1.0" encoding="utf-8"?>
<!-- Generator: Adobe Illustrator 18.1.1, SVG Export Plug-In . SVG Version: 6.00 Build 0)  -->
<svg version="1.1" id="Capa_1" xmlns="http://www.w3.org/2000/svg" xmlns:xlink="http://www.w3.org/1999/xlink" x="0px" y="0px"
	 viewBox="0 0 512 512" enable-background="new 0 0 512 512" xml:space="preserve">
<path fill="#010202" d="M505.4,331.7l-70.2-128.6V23.7c0-11.6-9.4-21.1-21.1-21.1H98.9c-11.6,0-21.1,9.4-21.1,21.1v179.5L6.7,331.6
	c-4.1,3.8-6.7,9.2-6.7,15.2v59.8V427v61.4c0,11.6,9.4,21.1,21.1,21.1h48.8c11.6,0,21.1-9.4,21.1-21.1v-19.1h330.2v19.1
	c0,11.6,9.4,21.1,21.1,21.1h48.8c11.6,0,21.1-9.4,21.1-21.1V427v-4.4v-75.8C512,340.9,509.5,335.5,505.4,331.7z M99.3,214.7h314.4
	l60.7,111.1H37.8L99.3,214.7z M164.5,189.6V90.3h80.4v99.3H164.5z M269.4,189.6V90.3h80.4v99.3H269.4z M102.3,27h308.6v163.4h-36.7
	V87c0-11.6-9.4-21.1-21.1-21.1H161.2c-11.6,0-21.1,9.4-21.1,21.1v103.4h-37.9V27z M487.6,485h-42.2v-40.1h-16.2h-8.2H90.9h-7H66.5
	V485H24.4V427v-20.3v-56.5h463.3v71.7v5.1V485z"/>
</svg>
