<?xml version="1.0" encoding="utf-8"?>
<!-- Generator: Adobe Illustrator 18.1.1, SVG Export Plug-In . SVG Version: 6.00 Build 0)  -->
<svg version="1.1" id="Capa_1" xmlns="http://www.w3.org/2000/svg" xmlns:xlink="http://www.w3.org/1999/xlink" x="0px" y="0px"
	 viewBox="0 0 512 512" enable-background="new 0 0 512 512" xml:space="preserve">
<g>
	<path fill="#010202" d="M508,472L362.9,327c-0.5-0.5-1.1-0.7-1.6-1.1c2.4-3.2,4.6-6.4,6.6-9.6c54.8-85.1,30.4-206.3-57.3-265.5
		c-84-56.7-194-40.6-257.8,28.6c-67.4,72.7-70.2,182.2-8.8,257.5c31.2,38.3,72.2,62.2,120.6,69.8c62.9,10.1,118.8-5.9,168.1-49.2
		c1-0.9,5.4-5,10.9-10.8l144.8,144.8c5.4,5.4,14.2,5.4,19.6,0C513.3,486.2,513.3,477.4,508,472z M213.6,388.7
		c-98.6,6.8-183.4-65-191-161.3c-7.5-98,65.5-182.3,164.8-189.6c95-7.6,184.6,66.7,190.3,164.7C382.9,292.8,311.6,381.8,213.6,388.7
		z"/>
</g>
</svg>
