<?xml version="1.0" encoding="utf-8"?>
<!-- Generator: Adobe Illustrator 18.1.1, SVG Export Plug-In . SVG Version: 6.00 Build 0)  -->
<svg version="1.1" id="Capa_1" xmlns="http://www.w3.org/2000/svg" xmlns:xlink="http://www.w3.org/1999/xlink" x="0px" y="0px"
	 viewBox="0 0 512 512" enable-background="new 0 0 512 512" xml:space="preserve">
<path d="M506,217.2c5.4-5.3,7.3-13.2,5-20.3c-2.3-7.2-8.5-12.4-16-13.5l-142.6-20.7c-6.5-1-12-5-14.9-10.8L273.8,22.6
	c-3.3-6.8-10.2-11.1-17.8-11.1c-7.6,0-14.4,4.3-17.7,11.1l-63.8,129.2c-2.9,5.8-8.5,9.9-14.9,10.8L17,183.3
	c-7.5,1.1-13.7,6.3-16,13.5c-2.3,7.2-0.4,15.1,5,20.3l103.2,100.5c4.6,4.5,6.8,11.1,5.7,17.5l-24.3,142c-1.2,7.4,1.8,14.9,7.9,19.4
	c6.1,4.4,14.2,5,20.9,1.5l127.6-67c5.8-3.1,12.7-3.1,18.4,0l127.5,67c6.7,3.5,14.8,2.9,20.9-1.5c6.1-4.5,9.2-12,7.9-19.4l-24.3-142
	c-1.1-6.4,1-13,5.7-17.5L506,217.2z"/>
</svg>
