<?xml version="1.0" encoding="utf-8"?>
<!-- Generator: Adobe Illustrator 18.1.1, SVG Export Plug-In . SVG Version: 6.00 Build 0)  -->
<svg version="1.1" id="Capa_1" xmlns="http://www.w3.org/2000/svg" xmlns:xlink="http://www.w3.org/1999/xlink" x="0px" y="0px"
	 viewBox="0 0 512 512" enable-background="new 0 0 512 512" xml:space="preserve">
<g>
	<path d="M501.4,485.1h-32.1V181.8h32.1c5.8,0,10.6-6,10.6-13.4c0-7.4-4.8-13.4-10.6-13.4h-91c-5.8,0-10.6,6-10.6,13.4
		c0,7.4,4.8,13.4,10.6,13.4h32.1v303.3h-32.1c-5.8,0-10.6,6-10.6,13.4c0,7.4,4.8,13.4,10.6,13.4h91c5.8,0,10.6-6,10.6-13.4
		C512,491.2,507.2,485.1,501.4,485.1z"/>
	<path d="M349.2,0c-7.4,0-13.4,4.8-13.4,10.6v32.1H26.9V10.6c0-5.8-6-10.6-13.4-10.6C6,0,0,4.8,0,10.6v91c0,5.8,6,10.6,13.4,10.6
		c7.4,0,13.4-4.8,13.4-10.6V69.6h308.9v32.1c0,5.8,6,10.6,13.4,10.6c7.4,0,13.4-4.8,13.4-10.6v-91C362.7,4.8,356.6,0,349.2,0z"/>
	<path d="M353.6,158.4c-0.3-0.2-0.5-0.4-0.8-0.6c-1.8-1.7-3.9-2.9-6.3-2.9H10.6c-2.4,0-4.5,1.2-6.3,2.9c-0.3,0.2-0.5,0.4-0.7,0.6
		c-0.2,0.3-0.4,0.5-0.7,0.8C1.2,161,0,163.1,0,165.5v335.9c0,2.4,1.2,4.5,2.9,6.3c0.2,0.3,0.4,0.5,0.7,0.8c0.3,0.2,0.5,0.4,0.7,0.6
		c1.8,1.7,3.9,2.9,6.3,2.9h335.9c2.4,0,4.5-1.2,6.3-2.9c0.3-0.2,0.5-0.4,0.8-0.6c0.2-0.3,0.4-0.5,0.6-0.8c1.7-1.8,2.9-3.9,2.9-6.3
		V165.5c0-2.4-1.2-4.5-2.9-6.3C354,158.9,353.8,158.7,353.6,158.4z M26.9,181.8h303.3v303.3H26.9V181.8z"/>
</g>
</svg>
