<?xml version="1.0" encoding="utf-8"?>
<!-- Generator: Adobe Illustrator 18.1.1, SVG Export Plug-In . SVG Version: 6.00 Build 0)  -->
<svg version="1.1" id="Capa_1" xmlns="http://www.w3.org/2000/svg" xmlns:xlink="http://www.w3.org/1999/xlink" x="0px" y="0px"
	 viewBox="0 0 512 512" enable-background="new 0 0 512 512" xml:space="preserve">
<g>
	<path d="M286.9,512h-61.9c-12.4,0-22.6-9.3-23.8-21.5l-6.3-38.1c-11.9-3.7-23.5-8.5-34.6-14.3l-31.9,22.8
		c-3.8,3.1-9.2,5.1-14.7,5.1c-6.4,0-12.4-2.5-16.9-7l-43.7-43.8c-8.7-8.8-9.4-22.5-1.6-32.1l22.4-31.4
		c-5.8-11.1-10.7-22.7-14.3-34.5L21,310.7c-11.7-1.2-21-11.4-21-23.8v-61.9c0-12.4,9.3-22.6,21.5-23.8l38.1-6.4
		c3.7-11.9,8.5-23.5,14.3-34.5l-22.8-31.9c-7.5-9.1-6.8-22.9,1.9-31.6l43.8-43.8c8.4-8.4,22.8-9.1,32.1-1.6l31.4,22.4
		c11-5.8,22.6-10.6,34.6-14.3l6.4-38.6c1.2-11.7,11.4-21,23.8-21h61.9c12.4,0,22.6,9.3,23.8,21.5l6.4,38
		c11.9,3.7,23.5,8.5,34.5,14.3l31.9-22.8c3.8-3.1,9.2-5,14.7-5c6.4,0,12.4,2.5,16.9,7l43.8,43.8c8.7,8.7,9.4,22.5,1.6,32.1
		l-22.4,31.4c5.8,11,10.6,22.6,14.3,34.5l38.6,6.5c11.7,1.2,21,11.4,21,23.8v61.9c0,12.4-9.3,22.6-21.6,23.8l-38,6.4
		c-3.7,11.9-8.5,23.6-14.3,34.6l22.8,31.8c7.5,9.1,6.8,22.9-2,31.7l-43.8,43.7c-8.4,8.4-22.8,9.2-32.1,1.6l-31.4-22.4
		c-11.1,5.8-22.6,10.7-34.5,14.3l-6.4,38.6C309.5,502.7,299.3,512,286.9,512L286.9,512z M165.8,409.4c1.3,0,2.7,0.3,3.9,1
		c12.1,6.8,25,12.1,38.3,15.9c2.9,0.9,5.2,3.3,5.7,6.4l6.8,41c0.4,3.8,3.3,6.4,6.6,6.4h58c3.3,0,6.2-2.6,6.5-5.9l6.9-41.5
		c0.5-3,2.7-5.5,5.6-6.3c13.3-3.8,26.1-9.1,38.2-15.9c2.7-1.5,6-1.4,8.5,0.5l33.9,24.1c3.4,2.8,6.9,2.2,9.2-0.1l41-41
		c2.4-2.4,2.6-6.2,0.4-8.8l-24.5-34.3c-1.8-2.5-2-5.8-0.5-8.5c6.8-12,12.1-24.9,15.9-38.2c0.8-2.9,3.3-5.1,6.3-5.6l41.1-6.9
		c3.8-0.4,6.4-3.3,6.4-6.6v-58c0-3.3-2.5-6.2-5.9-6.5l-41.5-6.9c-3.1-0.5-5.5-2.7-6.3-5.6c-3.8-13.4-9.1-26.2-15.9-38.2
		c-1.5-2.7-1.3-6,0.5-8.5l24.2-33.9c2.4-3,2.2-6.8-0.1-9.2l-41-41c-2.3-2.3-6.3-2.5-8.8-0.5l-34.3,24.5c-2.5,1.8-5.8,2-8.5,0.5
		c-12.1-6.7-24.9-12.1-38.3-15.9c-2.9-0.8-5.1-3.3-5.6-6.3l-6.8-41c-0.4-3.9-3.2-6.4-6.6-6.4h-58c-3.4,0-6.2,2.5-6.5,5.9l-6.9,41.5
		c-0.5,3-2.7,5.5-5.7,6.4c-13.3,3.8-26.2,9.1-38.2,15.9c-2.7,1.5-6,1.3-8.5-0.5l-33.9-24.2c-3.4-2.7-6.9-2.2-9.2,0.2l-41,41
		c-2.4,2.4-2.6,6.2-0.4,8.8l24.5,34.3c1.8,2.5,1.9,5.8,0.5,8.5c-6.8,12-12.1,24.9-15.9,38.2c-0.9,2.9-3.3,5.2-6.3,5.6l-41,6.9
		c-3.9,0.4-6.4,3.2-6.4,6.6v58c0,3.4,2.5,6.2,5.8,6.6l41.6,6.9c3,0.5,5.5,2.7,6.3,5.7c3.7,13.2,9.1,26.1,15.9,38.2
		c1.5,2.7,1.3,6-0.5,8.4L77,384.7c-2.5,3.1-2.3,6.8,0.1,9.2l41,41c2.3,2.3,6.3,2.5,8.8,0.4l34.3-24.5
		C162.6,409.9,164.2,409.4,165.8,409.4L165.8,409.4z M256,357.2c-55.8,0-101.3-45.4-101.3-101.2c0-55.9,45.4-101.3,101.3-101.3
		c55.8,0,101.3,45.4,101.3,101.3C357.3,311.8,311.8,357.2,256,357.2L256,357.2z M256,181.3c-41.2,0-74.7,33.5-74.7,74.7
		c0,41.2,33.5,74.6,74.7,74.6c41.2,0,74.7-33.5,74.7-74.6C330.7,214.8,297.2,181.3,256,181.3L256,181.3z M256,171.6"/>
</g>
</svg>
