<?xml version="1.0" encoding="utf-8"?>
<!-- Generator: Adobe Illustrator 18.1.1, SVG Export Plug-In . SVG Version: 6.00 Build 0)  -->
<svg version="1.1" id="Capa_1" xmlns="http://www.w3.org/2000/svg" xmlns:xlink="http://www.w3.org/1999/xlink" x="0px" y="0px"
	 viewBox="0 0 512 512" enable-background="new 0 0 512 512" xml:space="preserve">
<g>
	<path d="M54.5,49C63,51.4,68,60.4,65.6,69l-24.5,86.5c57.6-36.9,124.7-52.5,196-44.9c168.7,18,291.2,169.9,273.2,338.6
		c-0.9,8.9-8.9,15.3-17.8,14.3c-8.9-0.9-15.3-8.9-14.3-17.8c16.1-151-93.6-286.9-244.5-303.1c-64.2-6.9-124.6,7.2-176.2,40.6
		l84.2,32.5c8.3,3.2,12.5,12.5,9.2,20.9c-2.7,7-9.7,11-16.8,10.3c-1.4-0.1-2.8-0.5-4.1-1L10.2,199.7c-0.7-0.3-1.3-0.9-2-1.2
		c-1-0.6-2-1.1-2.8-1.8c-0.8-0.7-1.3-1.5-2-2.3c-0.6-0.8-1.3-1.6-1.8-2.5C1.2,190.9,1,190,0.7,189c-0.3-1-0.6-2-0.7-3.1
		c-0.1-1,0.1-2,0.2-3c0.1-0.9-0.1-1.8,0.2-2.7l34-120.1C37,51.5,46.1,46.5,54.5,49z"/>
</g>
</svg>
