<?xml version="1.0" encoding="utf-8"?>
<!-- Generator: Adobe Illustrator 18.1.1, SVG Export Plug-In . SVG Version: 6.00 Build 0)  -->
<svg version="1.1" id="Capa_1" xmlns="http://www.w3.org/2000/svg" xmlns:xlink="http://www.w3.org/1999/xlink" x="0px" y="0px"
	 viewBox="0 0 512 512" enable-background="new 0 0 512 512" xml:space="preserve">
<g>
	<path d="M490.2,37.3H21.8C9.7,37.3,0,47.2,0,59.4v342.5c0,12.1,9.7,22,21.8,22h276.8v34c0,9.2,7.8,16.9,17.1,16.9h119.8
		c9.3,0,17.1-7.6,17.1-16.9v-34h37.6c12.1,0,21.8-9.9,21.8-22V59.4C512,47.2,502.3,37.2,490.2,37.3L490.2,37.3z M255.9,51.5
		c4.3,0,7.8,3.6,7.8,7.8c0,4.4-3.5,7.8-7.8,7.8s-7.6-3.4-7.6-7.8C248.3,55.1,251.6,51.5,255.9,51.5z M256.1,413.8
		c-6.7,0-12.2-5.5-12.2-12.1c0-6.6,5.5-12,12.2-12c6.7,0,12.1,5.3,12.1,12C268.1,408.3,262.8,413.8,256.1,413.8z M375.6,461.4
		c-6.7,0-12.2-5.5-12.2-12.1s5.5-12,12.2-12s12.1,5.4,12.1,12S382.4,461.4,375.6,461.4z M434.1,423.9l-116.9,0V229.2h116.9V423.9z
		 M358.5,216.5c0-2.3,1.9-4.2,4.2-4.2h25.7c2.3,0,4.2,1.9,4.2,4.2c0,2.3-1.9,4.2-4.2,4.2h-25.7C360.4,220.8,358.5,218.9,358.5,216.5
		z M487.6,81.4v298.3h-35.1V220.7c0-9.2-7.8-16.9-17.1-16.9H315.7c-9.3,0-17.1,7.6-17.1,16.9v159.1H24.3V81.4H487.6L487.6,81.4z"/>
</g>
</svg>
