<?xml version="1.0" encoding="utf-8"?>
<!-- Generator: Adobe Illustrator 18.1.1, SVG Export Plug-In . SVG Version: 6.00 Build 0)  -->
<svg version="1.1" id="Capa_1" xmlns="http://www.w3.org/2000/svg" xmlns:xlink="http://www.w3.org/1999/xlink" x="0px" y="0px"
	 viewBox="0 0 512 512" enable-background="new 0 0 512 512" xml:space="preserve">
<g>
	<path d="M314,355.4v60.3c0,12.8-3.7,19.1-11.1,19.1c-4.4,0-8.7-2.1-12.9-6.3v-86c4.2-4.2,8.5-6.3,12.9-6.3
		C310.3,336.3,314,342.7,314,355.4L314,355.4z M410.6,355.7v13.1h-25.7v-13.1c0-13,4.3-19.4,12.9-19.4
		C406.3,336.3,410.6,342.8,410.6,355.7L410.6,355.7z M134.6,293.4h30.6v-26.9H76v26.9h30V456h28.6L134.6,293.4L134.6,293.4z
		 M216.9,456h25.4V314.9h-25.4v108c-5.7,8-11.1,12-16.3,12c-3.4,0-5.4-2-6-6c-0.2-0.6-0.3-3.9-0.3-10v-104h-25.4v111.7
		c0,9.3,0.8,16.3,2.3,20.9c2.3,7.1,7.8,10.6,16.6,10.6c9.1,0,18.9-5.8,29.1-17.4V456L216.9,456z M339.5,413.7v-56.3
		c0-13.9-0.9-23.3-2.6-28.3c-3.2-10.7-10-16-20.3-16c-9.5,0-18.4,5.2-26.6,15.4v-62h-25.4V456H290v-13.7
		c8.6,10.5,17.4,15.7,26.6,15.7c10.3,0,17-5.2,20.3-15.7C338.6,437.1,339.5,427.6,339.5,413.7L339.5,413.7z M436,410.9v-3.7h-26
		c0,9.7-0.2,15.5-0.6,17.4c-1.3,6.9-5.1,10.3-11.4,10.3c-8.8,0-13.1-6.6-13.1-19.7v-24.9H436v-29.4c0-15.1-2.6-26.1-7.7-33.2
		c-7.4-9.7-17.5-14.6-30.3-14.6c-13,0-23.1,4.8-30.6,14.6c-5.3,7.1-8,18.1-8,33.2v49.4c0,15.1,2.8,26.1,8.3,33.1
		c7.4,9.7,17.7,14.6,30.9,14.6c13.7,0,24-5,30.9-15.1c3.4-5.2,5.4-10.3,6-15.4C435.8,425.7,436,420.2,436,410.9L436,410.9L436,410.9
		z M262.3,150V90c0-13.1-4.1-19.7-12.3-19.7c-8.2,0-12.3,6.6-12.3,19.7v60c0,13.3,4.1,20,12.3,20C258.2,170,262.3,163.3,262.3,150z
		 M467.7,364.6c0,44.6-2.5,77.9-7.4,100c-2.7,11.2-8.2,20.7-16.6,28.3c-8.4,7.6-18.1,12-29.1,13.1c-35,4-87.9,6-158.6,6
		c-70.7,0-123.5-2-158.6-6c-11.1-1.1-20.8-5.5-29.3-13.1c-8.5-7.6-13.9-17.1-16.4-28.3c-4.9-21.3-7.4-54.7-7.4-100
		c0-44.6,2.5-77.9,7.4-100c2.7-11.2,8.2-20.7,16.6-28.3s18.2-12.1,29.4-13.4c34.9-3.8,87.6-5.7,158.3-5.7
		c70.7,0,123.5,1.9,158.6,5.7c11,1.3,20.8,5.8,29.3,13.4s13.9,17,16.4,28.3C465.2,285.9,467.7,319.3,467.7,364.6z M182.6,0h29.1
		l-34.6,114v77.4h-28.6V114c-2.7-14.1-8.5-34.3-17.4-60.6C124.1,33.8,117.9,16,112.6,0h30.3l20.3,75.1L182.6,0z M288.3,95.1v50
		c0,15.4-2.7,26.7-8,33.7c-7.1,9.7-17.2,14.6-30.3,14.6c-12.8,0-22.8-4.9-30-14.6c-5.3-7.2-8-18.5-8-33.7v-50
		c0-15.2,2.7-26.4,8-33.4c7.2-9.7,17.2-14.6,30-14.6c13.1,0,23.2,4.9,30.3,14.6C285.6,68.8,288.3,79.9,288.3,95.1z M384,48.9v142.6
		h-26v-15.7c-10.1,11.8-19.9,17.7-29.4,17.7c-8.8,0-14.4-3.5-16.9-10.6c-1.5-4.6-2.3-11.7-2.3-21.4V48.9h26v104.9
		c0,6.3,0.1,9.6,0.3,10c0.6,4.2,2.6,6.3,6,6.3c5.2,0,10.6-4.1,16.3-12.3V48.9H384z"/>
</g>
</svg>
