<?xml version="1.0" encoding="utf-8"?>
<!-- Generator: Adobe Illustrator 18.1.1, SVG Export Plug-In . SVG Version: 6.00 Build 0)  -->
<svg version="1.1" id="Capa_1" xmlns="http://www.w3.org/2000/svg" xmlns:xlink="http://www.w3.org/1999/xlink" x="0px" y="0px"
	 viewBox="0 0 512 512" enable-background="new 0 0 512 512" xml:space="preserve">
<path d="M260.6,0h-9.2C112.8,0,0,112.8,0,251.4v9.2C0,399.2,112.8,512,251.4,512h9.2C399.2,512,512,399.2,512,260.6v-9.2
	C512,112.8,399.2,0,260.6,0z M103.3,72.9l-9.2,5c4.1,1,17.7,7.3,18.7,10.1c0.4,1-0.5,3-2.2,5.3c-14.4,18.9-36.8,37.1-47.9,39
	c-4.7,0.8-8.1,1-10.5,1c-0.2,0-0.2,0-0.3,0C65.6,110.4,82.9,89.9,103.3,72.9z M18.3,271.8c-0.3-5.3-0.8-10.5-0.8-15.8
	c0-5.8,0.5-11.5,0.9-17.2c8.9,2.7,17.3,6.7,18.4,8.1l-6.7,9.5c-4.2,5.9-4.2,5.9-9.7,12.7L18.3,271.8z M256,494.5
	c-118.2,0-216.1-86.1-235-199l1.7,1.3l12.6-15.7c5.9-7.4,5.9-7.4,10.4-13.8l6.6-9.4c3.7-5.2,4.5-11,2.4-16.5
	c-4.7-12.6-24.6-19.3-34.2-21.9c3.7-24.2,11.1-47.2,21.5-68.5c2,0.6,5.3,1.3,10.3,1.3c3.5,0,7.9-0.3,13.3-1.2
	c18.5-3,44.7-26.1,60.1-46.2c7.4-9.8,6.8-18,5-23.1c-3-8.6-11.2-13.8-17.3-16.6c39.8-29.8,89-47.6,142.6-47.6
	c131.7,0,238.5,106.8,238.5,238.5c0,13.7-1.4,27-3.6,40c-2.7,1.1-6.9,2.8-13.2,5.1c-0.1-0.4-0.1-0.8-0.2-1.1
	c-0.8-3.6-1.7-8.1-3.8-13c-6.8-16.1-22.3-22.6-41.7-30.7c-13.9-5.9-58.9-15-82.7-2c-8.4,4.6-13.7,11.5-15.2,20.2
	c-2,11,0.1,19.1,6.1,24.3c10.3,8.8,26.8,3.7,38.9-0.4c-1,8.1-6.6,23.9-20.1,35.5c-28.3,24.4-49.3,102.1-45.5,133.4
	c0.1,0.5,0.1,1,0.1,1.3c-6.4-0.6-24.4-8.6-53-30c-8.1-6.1-12.1-32.8-15.2-54.3c-4.6-31.1-8.6-58-25.1-65.7
	c-7.7-3.6-17.5-5.4-27.9-7.2c-29.1-5.1-50.1-10.8-55.9-36.3c-3.3-14.6-1.7-26.7,4.6-36.1c10.4-15.6,31.7-21.2,43.4-23.2
	c20.2-3.5,50.1,9.8,68,17.8c7.8,3.4,13.3,6.4,17.6,7c26.8,4,53.5-17.4,62.5-29.9c1.9-2.7,6-6,5-12.6c8.3-2.9,14.2-11.5,17-19.1
	c4.2-11.1,2.9-21-3.4-26.6c-4.6-4-13.2-7.1-28.4,1c-23.5,12.4-28.2,22.2-31.3,32.1c-0.9,2.9-1.2,3.6-1.9,4.4
	c-0.6-0.2-6.5-0.6-24.1-21.6c-20.1-24-36.9-17.2-47-12.1c-10.7,5.3-4.7,18.7-18.8,20c-9.9-4.1,6.7-10.8-0.5-18
	c-7.2-7.1,10.5-10.5,18.4-10.1c9,0.4,18.1-6.3,20.2-15.2c2.5,1,6,3.1,10.2,7.1c6.6,6.4,13.2,9.1,19.9,8.4
	c10.6-1.1,18.5-10.8,24.8-20.2c8.7-12.8,5.1-21.5,2.2-25.6c-4.3-6.1-12.1-8.8-20.2-9c2.3-2.5,5.5-5.7,10-9.5
	c14.8-12.6,25.2-19.1,34.3-16.7c7.5,2.9,15.1,4.9,28.9,4.9c23.7,0,54.3-29.7,42.9-23.8l-21-4.5c-0.1,0.1-10.8,11.7-25.9,11.7
	c-5.6,0-32.1-19-71.6,13.9c-19.2,16-25.6,28.2-20.7,37.4c1.2,2.3,6.1,9.4,18.5,6.1c1.5-0.4,3-0.5,4.4-0.5c2.4,0,4.2,0.5,4.6,0.4
	c0,0.4-0.4,2-2.2,4.6c-7.6,11.3-10.7,11.9-11,11.9c-0.1,0-1.4-0.1-4.6-3.2c-13.2-12.7-28.2-16.8-37.3-10.2
	c-3.5,2.6-5.2,6.2-4.9,11.3c-1.1,0.6-3.2,1.4-6.6,2.4c-9.3,2.6-15.4,2.3-19.3,2c-3.7-0.2-9.2-0.5-12.7,4.6c-3.5,5.1-1,10.5-0.2,12.3
	c1.6,3.4,4.4,6.6,7.1,9.7c0.3,0.4,0.7,0.9,1.2,1.3c-7.6,2.8-15.5,6.9-15.2,15.4c0.4,10.7,13.6,13.8,21.4,15.7
	c8.8,2.1,15.5,1.5,20.7-1.9c6.6-4.3,7.9-11.4,8.8-16c0.1-0.6,0.2-1.3,0.4-1.9c7-2.2,16.6-1.8,26.2,9.7c16.2,19.4,27,27.7,37.2,28.4
	c5.3,0.4,10-1.2,14-4.8c4.9-4.4,6.4-9.1,7.6-13c1.6-5.2,3.5-11.1,22-20.9c3-1.6,5-2.3,6.3-2.6c-0.4,4.2-4,11.6-6.4,12.5
	c-3.3,0-10.9,0-14.5,6.3c-2.5,4.4-1.3,8.5,0.3,11.9c-6.3,13.9-26.3,27.2-42.8,23.9c-2.6-0.7-8.4-3.2-14.5-5.9
	c-21.1-9.4-53-23.5-78.9-19.1c-25.5,4.3-45.4,15.5-56.1,31.4c-9.4,14-11.8,31.1-7.4,51c9,39.9,44.9,46.2,71.1,50.9
	c9.1,1.6,17.7,3.1,23.1,5.7c7.2,3.4,11.5,32.2,14.3,51.2c4.2,28.8,8.2,55.9,22.6,66.8c34.1,25.6,52.7,32.6,63.1,33.7
	C294.2,491.9,275.4,494.5,256,494.5z M326.1,484c3.5-2.7,7.7-8.1,6.3-19c-3.2-26.1,16.4-97.1,39-116.6
	c22.5-19.4,31.6-50.7,24.2-63.7c-3.5-6.1-10.3-8.6-17.2-6.3l-3.2,1.1c-12.7,4.5-20.3,6.1-22.5,5c0,0-0.8-1.6,0.1-6.6
	c0.4-2,1.3-4.5,5.6-6.8c16.1-8.7,53.9-2.3,67.6,3.4c17.3,7.2,26.5,11.4,30.1,20c1.4,3.3,2,6.6,2.6,9.4c1.2,5.8,2.6,12.4,8.9,15.8
	c6.3,3.4,13.2,0.8,15.4-0.1c1.1-0.4,1.8-0.7,2.8-1.1C464.5,397.4,403.9,460.1,326.1,484z"/>
</svg>
