<?xml version="1.0" encoding="utf-8"?>
<!-- Generator: Adobe Illustrator 18.1.1, SVG Export Plug-In . SVG Version: 6.00 Build 0)  -->
<svg version="1.1" id="Capa_1" xmlns="http://www.w3.org/2000/svg" xmlns:xlink="http://www.w3.org/1999/xlink" x="0px" y="0px"
	 viewBox="0 0 512 512" enable-background="new 0 0 512 512" xml:space="preserve">
<g>
	<path fill="#010202" d="M256,281.4c73.1,0,132.6-59.5,132.6-132.6S329.1,16.2,256,16.2c-73.1,0-132.6,59.5-132.6,132.6
		S182.9,281.4,256,281.4z M256,41.8c59,0,107.1,48,107.1,107s-48,107-107.1,107s-107-48-107-107S197,41.8,256,41.8z"/>
	<path fill="#010202" d="M511.9,480.8c0-0.8,0.1-22.9,0.1-23.7c0-71-56.1-128.9-126.3-132.3c-3.1,0-6.3,0-9.4,0l0,0H130.2l0,0
		c-1.3,0-2.7,0-4,0C56.1,328.2,0,386.2,0,457.2c0,0.8,0.1,22.9,0.1,23.7c0.1,0,0.2,0,0.3,0c-0.1,0.7-0.4,1.3-0.4,2
		c0,7.2,5.9,13,13,13h486c7.2,0,13-5.9,13-13c0-0.7-0.3-1.3-0.4-2C511.7,480.8,511.8,480.8,511.9,480.8z M126.3,350.8
		c1.4,0,2.4,0,3.6,0c0.1,0,0.2,0.1,0.3,0.1h246.1c0.1,0,0.1,0,0.2,0c2.7,0,5.7,0,9.3-0.1c56,3.4,100.7,49.6,100.7,106.4
		c0,0.4-0.1,6.7-0.1,12.7H25.7c-0.1-6-0.1-12.2-0.1-12.7C25.6,400.3,70.3,354.1,126.3,350.8z"/>
</g>
</svg>
