<?xml version="1.0" encoding="utf-8"?>
<!-- Generator: Adobe Illustrator 18.1.1, SVG Export Plug-In . SVG Version: 6.00 Build 0)  -->
<svg version="1.1" id="Capa_1" xmlns="http://www.w3.org/2000/svg" xmlns:xlink="http://www.w3.org/1999/xlink" x="0px" y="0px"
	 viewBox="0 0 512 512" enable-background="new 0 0 512 512" xml:space="preserve">
<g>
	<path d="M506.6,431.2L284.3,46.3c-5.8-10.1-16.7-16.4-28.4-16.4s-22.5,6.3-28.2,16.3L4.4,433c-5.8,10-5.8,22.7,0,32.7
		c5.8,10.1,16.7,16.4,28.2,16.4h446.7c18.1,0,32.7-14.6,32.7-32.7C512,442.6,510.1,436.2,506.6,431.2L506.6,431.2z M469.9,454.3H42
		c-4.7,0-9.1-2.5-11.5-6.5c-2.4-4.1-2.4-9.2,0-13.2L244.4,64.1c2.4-4,6.7-6.5,11.3-6.5c4.7,0,9.2,2.5,11.5,6.5l213.4,369.5
		c1.6,2.3,2.4,4.8,2.4,7.6C483.1,448.5,477.3,454.3,469.9,454.3L469.9,454.3z"/>
	<path d="M272.6,328l4.3-146.8c0.3-8.2-6.3-14.9-14.5-14.9h-8.5c-8.2,0-14.7,6.7-14.5,14.9l4.2,146.8c0.3,7.8,6.7,14,14.5,14l0,0
		C265.9,342.1,272.3,335.8,272.6,328z"/>
	<path d="M258,367.2c-13.3,0-23.1,10.1-23.1,24.1c0,14,9.7,24.2,23.1,24.2c13.6,0,23.1-9.9,23.1-24.2
		C281.2,377.1,271.6,367.2,258,367.2L258,367.2z"/>
</g>
</svg>
