<?xml version="1.0" encoding="utf-8"?>
<!-- Generator: Adobe Illustrator 18.1.1, SVG Export Plug-In . SVG Version: 6.00 Build 0)  -->
<svg version="1.1" id="Capa_1" xmlns="http://www.w3.org/2000/svg" xmlns:xlink="http://www.w3.org/1999/xlink" x="0px" y="0px"
	 viewBox="0 0 512 512" enable-background="new 0 0 512 512" xml:space="preserve">
<g>
	<path d="M511.9,13c0.5-3.2-0.3-6.5-2.8-9L508,2.9c-2.4-2.4-5.8-3.3-9-2.8l-119.3,0c-5.8,0-10.5,4.7-10.5,10.5v1.5
		c0,5.8,4.7,10.5,10.5,10.5h93.5L300.2,195.8c-4.1,4.1-4.1,10.8,0,14.9l1.1,1.1c4.1,4.1,10.8,4.1,14.9,0L489.3,38.7l0,93.5
		c0,5.8,4.7,10.5,10.5,10.5l1.5,0c5.8,0,10.5-4.7,10.5-10.5L511.9,13z"/>
	<path d="M0.1,13c-0.5-3.2,0.3-6.5,2.8-9L4,2.9c2.4-2.4,5.8-3.3,9-2.8l119.3,0c5.8,0,10.5,4.7,10.5,10.5v1.5
		c0,5.8-4.7,10.5-10.5,10.5H38.7l173.1,173.1c4.1,4.1,4.1,10.8,0,14.9l-1.1,1.1c-4.1,4.1-10.8,4.1-14.9,0L22.7,38.7l0,93.5
		c0,5.8-4.7,10.5-10.5,10.5l-1.5,0c-5.8,0-10.5-4.7-10.5-10.5L0.1,13z"/>
	<path d="M511.9,499c0.5,3.2-0.3,6.5-2.8,9l-1.1,1.1c-2.4,2.4-5.8,3.3-9,2.8l-119.3,0c-5.8,0-10.5-4.7-10.5-10.5v-1.5
		c0-5.8,4.7-10.5,10.5-10.5h93.5L300.2,316.2c-4.1-4.1-4.1-10.8,0-14.9l1.1-1.1c4.1-4.1,10.8-4.1,14.9,0l173.1,173.1l0-93.5
		c0-5.8,4.7-10.5,10.5-10.5l1.5,0c5.8,0,10.5,4.7,10.5,10.5L511.9,499z"/>
	<path d="M0.1,499c-0.5,3.2,0.3,6.5,2.8,9l1.1,1.1c2.4,2.4,5.8,3.3,9,2.8l119.3,0c5.8,0,10.5-4.7,10.5-10.5v-1.5
		c0-5.8-4.7-10.5-10.5-10.5H38.7l173.1-173.1c4.1-4.1,4.1-10.8,0-14.9l-1.1-1.1c-4.1-4.1-10.8-4.1-14.9,0L22.7,473.3l0-93.5
		c0-5.8-4.7-10.5-10.5-10.5l-1.5,0c-5.8,0-10.5,4.7-10.5,10.5L0.1,499z"/>
</g>
</svg>
